<svg width="33" height="33" viewBox="0 0 33 33" fill="none" xmlns="http://www.w3.org/2000/svg">
<circle cx="16.9474" cy="16.9476" r="13.0526" fill="#F5F5F5" stroke="white" stroke-width="6"/>
<g clip-path="url(#clip0)">
<path d="M16.4122 12.6665H12.6666C12.3828 12.6665 12.1106 12.7793 11.9099 12.98C11.7092 13.1806 11.5964 13.4529 11.5964 13.7367V21.2279C11.5964 21.5117 11.7092 21.7839 11.9099 21.9846C12.1106 22.1853 12.3828 22.2981 12.6666 22.2981H20.1578C20.4417 22.2981 20.7139 22.1853 20.9146 21.9846C21.1153 21.7839 21.228 21.5117 21.228 21.2279V17.4823" stroke="#C4C4C4" stroke-width="2" stroke-linecap="round" stroke-linejoin="round"/>
<path d="M20.4255 11.8642C20.6384 11.6513 20.9271 11.5317 21.2282 11.5317C21.5292 11.5317 21.8179 11.6513 22.0308 11.8642C22.2437 12.0771 22.3633 12.3658 22.3633 12.6668C22.3633 12.9679 22.2437 13.2566 22.0308 13.4695L16.9475 18.5528L14.8071 19.0879L15.3422 16.9475L20.4255 11.8642Z" stroke="#C4C4C4" stroke-width="2" stroke-linecap="round" stroke-linejoin="round"/>
</g>
<defs>
<clipPath id="clip0">
<rect width="12.8421" height="12.8421" fill="white" transform="translate(10.5264 10.5264)"/>
</clipPath>
</defs>
</svg>
