<svg width="15" height="16" viewBox="0 0 15 16" fill="none" xmlns="http://www.w3.org/2000/svg">
<path d="M13.5646 7.21952L7.46575 14.0862C6.7186 14.9274 5.70524 15.4 4.6486 15.4C3.59197 15.4 2.57861 14.9274 1.83145 14.0862C1.0843 13.245 0.664551 12.104 0.664551 10.9144C0.664551 9.72471 1.0843 8.58377 1.83145 7.74255L7.9303 0.875874C8.4284 0.315061 9.10397 -5.90912e-09 9.8084 0C10.5128 5.90912e-09 11.1884 0.315061 11.6865 0.875874C12.1846 1.43669 12.4644 2.19731 12.4644 2.99042C12.4644 3.78353 12.1846 4.54416 11.6865 5.10497L5.58101 11.9716C5.33196 12.252 4.99418 12.4096 4.64196 12.4096C4.28975 12.4096 3.95197 12.252 3.70291 11.9716C3.45386 11.6912 3.31395 11.3109 3.31395 10.9144C3.31395 10.5178 3.45386 10.1375 3.70291 9.8571L9.33721 3.52093" stroke="#808080" stroke-linecap="round" stroke-linejoin="round"/>
</svg>
