<svg width="65" height="47" viewBox="0 0 65 47" fill="none" xmlns="http://www.w3.org/2000/svg">
<path d="M63.7401 4.06302C63.7358 4.06302 63.7316 4.06302 63.7275 4.06302H59.4563V2.60149C59.4793 2.02303 59.1051 1.50315 58.5491 1.34156C55.5839 0.564495 52.5304 0.17486 49.465 0.18242C44.4253 0.18242 37.5586 1.31636 32.4811 6.48209C27.4414 1.26596 20.5243 0.18242 15.4972 0.18242C12.4318 0.17486 9.37832 0.564495 6.41306 1.34156C5.85712 1.50315 5.48292 2.02303 5.50591 2.60149V4.05042H1.25993C0.564135 4.05042 0 4.61455 0 5.31035V45.5526C0 46.2484 0.564135 46.8126 1.25993 46.8126C1.47633 46.8119 1.68894 46.7556 1.8773 46.6488C2.0033 46.5858 14.6026 39.6939 32.1913 44.1289H32.3803H32.4937C32.5942 44.141 32.6956 44.141 32.7961 44.1289C50.4352 39.6561 63.0345 46.5354 63.1101 46.6488C63.4999 46.8738 63.9802 46.8738 64.37 46.6488C64.7575 46.4251 64.9973 46.0127 65 45.5652V5.32295C65 4.62715 64.436 4.06302 63.7401 4.06302ZM2.51987 43.5493V6.58288H5.53111V38.182C5.52324 38.8778 6.08091 39.4483 6.77671 39.4561C6.84475 39.4569 6.91279 39.4522 6.98003 39.442C9.58652 39.044 12.2181 38.8334 14.8546 38.812C18.5069 38.7487 22.1438 39.298 25.6145 40.4373C17.7769 39.4895 9.82701 40.5608 2.51987 43.5493ZM14.8546 36.3047C12.563 36.3099 10.274 36.4572 8.00058 36.7457V3.59684C10.4537 3.05034 12.9587 2.77143 15.472 2.76528C20.1841 2.76528 26.6854 3.84883 31.196 8.93896L31.2338 40.3239C28.6131 38.6104 23.4978 36.3047 14.8546 36.3047ZM33.7536 8.93896C38.2642 3.89922 44.7655 2.76528 49.4776 2.76528C51.9907 2.77269 54.4958 3.05145 56.949 3.59684V36.7457C54.6884 36.4545 52.412 36.303 50.1328 36.2921C41.54 36.2921 36.4121 38.5978 33.7536 40.3113V8.93896ZM62.4675 43.5493C55.1448 40.5526 47.1767 39.4812 39.3225 40.4373C42.8096 39.2939 46.4638 38.7444 50.1328 38.812C52.7859 38.8268 55.4344 39.0331 58.0578 39.4294C58.7457 39.5338 59.3881 39.0607 59.4925 38.3727C59.5028 38.3055 59.5075 38.2375 59.5067 38.1694V6.58288H62.5179L62.4675 43.5493Z" fill="white"/>
</svg>
