<svg width="85" height="85" viewBox="0 0 85 85" fill="none" xmlns="http://www.w3.org/2000/svg">
<g clip-path="url(#clip0)">
<path d="M42.5002 0C65.9721 0 85 19.0279 85 42.5002C85 65.9721 65.9721 85 42.5002 85C19.0275 85 0 65.9721 0 42.5002C0 19.0279 19.0279 0 42.5002 0Z" fill="#3FC1C9"/>
<path d="M22.2168 39.1205H63.6719L73.0786 67.1583L69.6336 67.17L69.551 77.0689L73.1017 77.0815L73.0786 78.7354H17.0404C11.7368 78.4576 12.2093 72.0924 11.9263 70.3879L16.6476 41.8865C16.6659 40.6198 18.6177 39.1205 22.2168 39.1205Z" fill="white"/>
<path d="M22.217 39.1205H26.1876L22.5738 78.7354H17.0408C11.7373 78.4576 11.8215 72.6067 11.9267 70.3884L16.648 41.8865C16.6661 40.6203 18.6183 39.1205 22.217 39.1205Z" fill="#FBB429"/>
<path d="M17.7627 67.1548H72.0047C69.543 70.5501 69.6071 73.8992 72.0047 77.2035H17.7627C14.8535 77.2035 13.4443 74.9431 13.4443 72.1787C13.4442 69.4156 14.8543 67.1548 17.7627 67.1548Z" fill="#ECF0F1"/>
<path d="M34.2622 72.3037H42.7385V85.0001L38.4649 80.858L34.2617 85.0001V72.3037H34.2622Z" fill="#FC5185"/>
<path d="M46.5319 9.59888C42.9728 10.9723 41.3394 16.8938 42.1703 20.5054L43.2564 20.3691C42.632 16.0655 45.3113 12.3863 48.6356 10.5521L46.5319 9.59888Z" fill="#EC4B53"/>
<path d="M42.8083 15.465C42.1064 9.04769 34.5873 7.07326 30.021 7.36197C32.1286 11.5127 36.0686 18.8939 42.8083 15.465Z" fill="#E1A020"/>
<path d="M30.021 7.36198C32.1286 11.5129 36.0686 18.8939 42.8083 15.465C35.9119 8.32438 30.021 7.36198 30.021 7.36198Z" fill="#FBB429"/>
<path d="M42.5146 51.2513C32.3709 55.6564 28.5258 45.9083 24.9856 37.6676C19.2605 24.3412 27.6367 14.3451 42.5146 20.0288C57.3926 14.3447 65.7688 24.3412 60.0437 37.6676C56.5038 45.9081 52.6582 55.6564 42.5146 51.2513Z" fill="#FC5185"/>
<path d="M42.5145 51.2513C37.601 53.3851 34.1654 52.1979 31.5264 49.4703C34.3926 51.804 38.1366 52.5843 42.7857 50.5542C51.4162 54.2818 55.1554 47.03 58.2398 39.9624C60.6113 34.5247 63.3805 28.8756 58.7732 21.4822C62.2094 24.9028 62.9732 30.8487 60.0434 37.6674C56.5034 45.9081 52.658 55.6564 42.5148 51.2512H42.5145V51.2513Z" fill="#EC4B53"/>
</g>
<defs>
<clipPath id="clip0">
<rect width="85" height="85" fill="white"/>
</clipPath>
</defs>
</svg>
