<svg width="85" height="85" viewBox="0 0 85 85" fill="none" xmlns="http://www.w3.org/2000/svg">
<g clip-path="url(#clip0)">
<path d="M42.5006 0C65.9729 0 85.0006 19.0277 85.0006 42.5C85.0006 65.9723 65.9729 85 42.5006 85C19.0287 85 0.000976562 65.9723 0.000976562 42.5C0.000976562 19.0274 19.0287 0 42.5006 0Z" fill="#3FC1C9"/>
<path d="M19.6663 33.2315H31.0059V63.8964C31.0059 67.0143 28.4546 69.5663 25.3359 69.5663C22.2173 69.5663 19.666 67.015 19.666 63.8964V33.2315H19.6663Z" fill="white"/>
<path d="M21.3811 46.5448V63.8964C21.3811 66.0681 23.1641 67.8514 25.3358 67.8514C27.5079 67.8514 29.2908 66.0684 29.2908 63.8964V46.5448H21.3811Z" fill="#364F6B"/>
<path d="M19.097 31.8076H31.5752C32.3585 31.8076 32.9992 32.4481 32.9992 33.2315V33.2319C32.9992 34.0151 32.3587 34.6554 31.5752 34.6554H19.097C18.3137 34.6554 17.6731 34.0149 17.6731 33.2319V33.2315C17.6731 32.4483 18.3137 31.8076 19.097 31.8076Z" fill="white"/>
<path d="M32.9992 33.2315V33.2318C32.9992 34.0151 32.3587 34.6554 31.5752 34.6554H19.097C18.3137 34.6554 17.6731 34.0149 17.6731 33.2318V33.2315H32.9992Z" fill="#ECF0F1"/>
<path d="M48.6847 15.8015V39.5072L65.5071 70.5805C68.0266 75.2339 65.017 77.9949 59.7588 77.9949H42.319H24.8784C19.6202 77.9949 16.6092 75.2379 19.1301 70.5805L35.9533 39.5072V15.8015H48.6847Z" fill="white"/>
<path d="M82.3996 22.0171V51.1201H62.9679V22.0171C60.4545 22.0171 83.7509 22.0171 82.3996 22.0171Z" fill="white"/>
<path d="M71.854 22.0172V6.24836H63.5358C63.2119 6.24836 62.9486 5.98522 62.9486 5.66116V2.00268H60.7055V11.9779C60.7055 12.3018 60.4427 12.5651 60.1188 12.5651H56.598C56.2741 12.5651 56.0108 12.302 56.0108 11.9779V6.76583H42.9062V15.8016H41.7319V6.17913C41.7319 5.85523 41.9951 5.59193 42.3191 5.59193H56.598C56.9222 5.59193 57.1852 5.85507 57.1852 6.17913V11.3912H59.5318V1.41581C59.5318 1.09191 59.7946 0.828613 60.119 0.828613H63.5363C63.8602 0.828613 64.1235 1.09175 64.1235 1.41581V5.0743H72.4417C72.7656 5.0743 73.0289 5.3371 73.0289 5.66149V22.0175H71.8546L71.854 22.0172Z" fill="#FC5185"/>
<path d="M73.0279 25.8636C73.0279 26.1875 72.7648 26.4508 72.4407 26.4508C72.1166 26.4508 71.8535 26.1876 71.8535 25.8636V22.0176H73.0277V25.8636H73.0279Z" fill="#C8CACC"/>
<path d="M42.9058 15.8015V23.9389C42.9058 24.2628 42.6427 24.5261 42.3186 24.5261C41.9947 24.5261 41.7314 24.263 41.7314 23.9389V15.8015H42.9058Z" fill="#C8CACC"/>
<path d="M34.4027 48.324L21.3595 71.6715C21.0462 72.3125 20.5243 73.607 20.9429 74.3146C21.5457 75.3333 23.8653 75.5134 24.8782 75.5134H59.7589C60.7721 75.5134 63.0902 75.333 63.6938 74.3136C64.1122 73.6061 63.5917 72.3125 63.2776 71.6715L50.2346 48.324C43.7146 46.8746 40.9229 50.3951 34.403 48.324H34.4027Z" fill="#FC5185"/>
<path d="M62.9679 19.721H61.7974V22.0171H83.5696V19.721H82.3991H62.9676H62.9679Z" fill="white"/>
<path d="M64.999 29.7015C75.7748 27.8468 75.598 32.0863 80.3676 29.7015V49.4862H64.999V29.7015Z" fill="#FBB429"/>
<path d="M64.999 22.8119H66.9731V23.4742H64.999V22.8119ZM64.999 48.9028H65.9862V49.5653H64.999V48.9028ZM64.999 47.3683H66.9731V48.0308H64.999V47.3683ZM64.999 45.8331H65.9862V46.4957H64.999V45.8331ZM64.999 44.2983H66.9731V44.9609H64.999V44.2983ZM64.999 42.7635H65.9862V43.4261H64.999V42.7635ZM64.999 41.2292H66.9731V41.8914H64.999V41.2292ZM64.999 39.6944H65.9862V40.3569H64.999V39.6944ZM64.999 38.1596H66.9731V38.8221H64.999V38.1596ZM64.999 36.6244H65.9862V37.2873H64.999V36.6244ZM64.999 35.0899H66.9731V35.7525H64.999V35.0899ZM64.999 33.5551H65.9862V34.2177H64.999V33.5551ZM64.999 32.0208H66.9731V32.683H64.999V32.0208ZM64.999 30.486H65.9862V31.1486H64.999V30.486ZM64.999 28.9512H66.9731V29.6137H64.999V28.9512ZM64.999 27.4164H65.9862V28.0789H64.999V27.4164ZM64.999 25.8815H66.9731V26.5441H64.999V25.8815ZM64.999 24.3467H65.9862V25.0093H64.999V24.3467Z" fill="#666666"/>
<path d="M21.3811 37.5666H23.3555V38.2291H21.3811V37.5666ZM21.3811 63.6574H22.3682V64.32H21.3811V63.6574ZM21.3811 62.1226H23.3555V62.7852H21.3811V62.1226ZM21.3811 60.5878H22.3682V61.2503H21.3811V60.5878ZM21.3811 59.053H23.3555V59.7155H21.3811V59.053ZM21.3811 57.5186H22.3682V58.1812H21.3811V57.5186ZM21.3811 55.9842H23.3555V56.6467H21.3811V55.9842ZM21.3811 54.449H22.3682V55.1116H21.3811V54.449ZM21.3811 52.9142H23.3555V53.5768H21.3811V52.9142ZM21.3811 51.3794H22.3682V52.042H21.3811V51.3794ZM21.3811 49.8449H23.3555V50.5071H21.3811V49.8449ZM21.3811 48.3101H22.3682V48.9723H21.3811V48.3101ZM21.3811 46.7754H23.3555V47.438H21.3811V46.7754ZM21.3811 45.2406H22.3682V45.9032H21.3811V45.2406ZM21.3811 43.7058H23.3555V44.3684H21.3811V43.7058ZM21.3811 42.171H22.3682V42.8336H21.3811V42.171ZM21.3811 40.6362H23.3555V41.2988H21.3811V40.6362ZM21.3811 39.1017H22.3682V39.7643H21.3811V39.1017Z" fill="#666666"/>
<path d="M18.2941 17.3067C19.4668 17.3067 20.4174 18.2573 20.4174 19.4305C20.4174 20.6032 19.4668 21.5543 18.2941 21.5543C17.1209 21.5543 16.1699 20.6034 16.1699 19.4305C16.1699 18.2573 17.1209 17.3067 18.2941 17.3067Z" fill="#364F6B"/>
<path d="M21.976 25.2666C22.7337 25.2666 23.348 25.8809 23.348 26.6386C23.348 27.3962 22.7337 28.0105 21.976 28.0105C21.2183 28.0105 20.6038 27.3962 20.6038 26.6386C20.6038 25.8809 21.2183 25.2666 21.976 25.2666Z" fill="#FC5185"/>
<path d="M21.4569 11.1564C22.2863 11.1564 22.9584 11.8284 22.9584 12.6578C22.9584 13.4872 22.2863 14.1593 21.4569 14.1593C20.6278 14.1593 19.9558 13.4872 19.9558 12.6578C19.9558 11.8284 20.6278 11.1564 21.4569 11.1564Z" fill="white"/>
<path d="M26.1024 27.4588C26.6174 27.4588 27.0344 27.8761 27.0344 28.3911C27.0344 28.9058 26.6176 29.3226 26.1024 29.3226C25.5878 29.3226 25.1704 28.9058 25.1704 28.3911C25.1704 27.876 25.5878 27.4588 26.1024 27.4588Z" fill="white"/>
<path d="M26.4273 19.6918C27.4043 19.6918 28.1961 20.4835 28.1961 21.4605C28.1961 22.4372 27.4043 23.2289 26.4273 23.2289C25.4507 23.2289 24.6589 22.4372 24.6589 21.4605C24.6591 20.4835 25.4508 19.6918 26.4273 19.6918Z" fill="#FBB429"/>
<path d="M39.3151 57.1836C40.3593 57.1836 41.2063 58.0302 41.2063 59.0748C41.2063 60.1191 40.3593 60.9661 39.3151 60.9661C38.2703 60.9661 37.4238 60.1191 37.4238 59.0748C37.4237 58.0302 38.2703 57.1836 39.3151 57.1836Z" fill="white"/>
<path d="M30.8803 65.9626C31.638 65.9626 32.2523 66.5769 32.2523 67.3346C32.2523 68.0926 31.638 68.7069 30.8803 68.7069C30.1223 68.7069 29.5081 68.0926 29.5081 67.3346C29.5081 66.5769 30.1223 65.9626 30.8803 65.9626Z" fill="white"/>
<path d="M51.7099 58.3256C52.4764 58.3256 53.0971 58.9468 53.0971 59.7125C53.0971 60.4786 52.4764 61.0997 51.7099 61.0997C50.9437 61.0997 50.323 60.4785 50.323 59.7125C50.323 58.9465 50.9441 58.3256 51.7099 58.3256Z" fill="white"/>
<path d="M43.3852 50.4581C43.943 50.4581 44.3954 50.9105 44.3954 51.4688C44.3954 52.0266 43.9427 52.479 43.3852 52.479C42.8271 52.479 42.3745 52.0263 42.3745 51.4688C42.3747 50.9105 42.8271 50.4581 43.3852 50.4581Z" fill="white"/>
<path d="M55.1068 69.4276C55.7788 69.4276 56.3232 69.9723 56.3232 70.644C56.3232 71.3157 55.7788 71.8604 55.1068 71.8604C54.4351 71.8604 53.8904 71.3157 53.8904 70.644C53.8904 69.9723 54.4351 69.4276 55.1068 69.4276Z" fill="white"/>
<path d="M35.6796 72.4091C36.1174 72.4091 36.4725 72.7642 36.4725 73.202C36.4725 73.6397 36.1174 73.9948 35.6796 73.9948C35.2418 73.9948 34.8867 73.6397 34.8867 73.202C34.8867 72.7642 35.2418 72.4091 35.6796 72.4091Z" fill="white"/>
<path d="M45.3897 65.2756C46.5269 65.2756 47.449 66.1977 47.449 67.3349C47.449 68.4721 46.5269 69.3938 45.3897 69.3938C44.2525 69.3938 43.3308 68.4718 43.3308 67.3349C43.3308 66.1977 44.2529 65.2756 45.3897 65.2756Z" fill="white"/>
<path d="M42.1653 26.3983C42.6408 26.3983 43.0263 26.7838 43.0263 27.2593C43.0263 27.7344 42.6408 28.1199 42.1653 28.1199C41.6902 28.1199 41.3047 27.7344 41.3047 27.2593C41.3047 26.7838 41.6902 26.3983 42.1653 26.3983Z" fill="#3FC1C9"/>
<path d="M41.4313 31.3336C42.3552 31.3336 43.1044 32.0828 43.1044 33.0067C43.1044 33.9306 42.3552 34.6795 41.4313 34.6795C40.5074 34.6795 39.7585 33.9303 39.7585 33.0067C39.7585 32.0828 40.5074 31.3336 41.4313 31.3336Z" fill="#FC5185"/>
<path d="M35.9527 12.4724H33.2752C31.0857 12.4724 31.0857 15.8015 33.2752 15.8015H35.9527H48.6843H51.3615C53.5511 15.8015 53.5511 12.4724 51.3615 12.4724H48.6843H35.9527Z" fill="white"/>
<path d="M35.953 15.8015H33.2755C32.3634 15.8015 31.6118 15.0538 31.6118 14.1382V14.137H53.0258V14.1382C53.0258 15.05 52.2743 15.8015 51.3619 15.8015H48.6847H35.953Z" fill="#ECF0F1"/>
<path d="M62.9679 22.0172H61.7974V20.8689H83.5696V22.0172H82.3991H62.9676H62.9679Z" fill="#ECF0F1"/>
<path d="M44.6775 37.4593C45.2638 37.4593 45.739 37.9348 45.739 38.5208C45.739 39.1072 45.2635 39.5823 44.6775 39.5823C44.0914 39.5823 43.616 39.1072 43.616 38.5208C43.6158 37.9348 44.0914 37.4593 44.6775 37.4593Z" fill="#FBB429"/>
<path d="M40.6904 41.3609C41.9671 41.3609 43.0027 42.3961 43.0027 43.6732C43.0027 44.9499 41.9671 45.9851 40.6904 45.9851C39.4138 45.9851 38.3782 44.95 38.3782 43.6732C38.3782 42.3964 39.4134 41.3609 40.6904 41.3609Z" fill="#ECF0F1"/>
<path d="M46.0753 44.2939C46.3685 44.2939 46.6064 44.5315 46.6064 44.8247C46.6064 45.1179 46.3685 45.3555 46.0753 45.3555C45.7822 45.3555 45.5449 45.1182 45.5449 44.8247C45.5449 44.5315 45.7822 44.2939 46.0753 44.2939Z" fill="#3FC1C9"/>
<path d="M35.436 57.1218C35.8148 57.1218 36.122 57.4286 36.122 57.8074C36.122 58.1863 35.8148 58.4937 35.436 58.4937C35.0571 58.4937 34.75 58.1863 34.75 57.8074C34.75 57.4286 35.0571 57.1218 35.436 57.1218Z" fill="white"/>
<path d="M20.7999 20.2771C21.3146 20.2771 21.7319 20.694 21.7319 21.2091C21.7319 21.7238 21.3146 22.1412 20.7999 22.1412C20.285 22.1412 19.8679 21.7238 19.8679 21.2091C19.8681 20.694 20.285 20.2771 20.7999 20.2771Z" fill="white"/>
</g>
<defs>
<clipPath id="clip0">
<rect width="85" height="85" fill="white"/>
</clipPath>
</defs>
</svg>
