<svg width="92" height="92" viewBox="0 0 92 92" fill="none" xmlns="http://www.w3.org/2000/svg">
<g clip-path="url(#clip0)">
<path d="M46.0339 -1.49618e-05C27.442 -1.49618e-05 10.6811 11.1994 3.5666 28.3762C-3.54789 45.5519 0.384216 65.3228 13.5304 78.4698C25.1346 90.1219 42.0797 94.6872 57.9673 90.4417C73.8548 86.1969 86.2637 73.787 90.5092 57.9003C94.7542 42.0129 90.1889 25.0676 78.5365 13.4635C69.9351 4.8149 58.231 -0.0330909 46.0339 -1.49618e-05ZM21.1858 79.7235V75.7457C21.1858 62.0231 32.3104 50.8978 46.0339 50.8978C59.7572 50.8978 70.8818 62.0231 70.8818 75.7457V79.7235C56.1103 90.6259 35.9575 90.6259 21.1858 79.7235ZM74.914 76.3435V75.7457C74.914 59.822 61.9584 46.8663 46.0339 46.8663C30.1094 46.8663 17.1538 59.822 17.1538 75.7457V76.3435C8.81468 68.4405 4.09346 57.4554 4.09976 45.9663C4.09976 22.8436 22.9114 4.03212 46.0339 4.03212C69.1564 4.03212 87.9679 22.8436 87.9679 45.9663C87.9734 57.4554 83.2531 68.4405 74.9132 76.3435H74.914Z" fill="#364F6B"/>
<path d="M46.1254 13.5375C37.5177 13.5375 30.5394 20.5158 30.5394 29.1234C30.5394 37.7311 37.5177 44.7094 46.1254 44.7094C54.733 44.7094 61.7111 37.7311 61.7111 29.1234C61.701 20.5198 54.729 13.5478 46.1254 13.5375ZM46.1254 40.6773C39.7447 40.6773 34.5715 35.5039 34.5715 29.1234C34.5715 22.7422 39.7447 17.5697 46.1254 17.5697C52.5066 17.5697 57.679 22.7422 57.679 29.1234C57.672 35.5015 52.5034 40.6701 46.1254 40.6773Z" fill="#364F6B"/>
</g>
<defs>
<clipPath id="clip0">
<rect width="92" height="92" fill="white"/>
</clipPath>
</defs>
</svg>
