<svg width="85" height="85" viewBox="0 0 85 85" fill="none" xmlns="http://www.w3.org/2000/svg">
<g clip-path="url(#clip0)">
<path d="M42.5011 85C65.909 85 85.0007 65.9083 85.0007 42.5001C85.0005 19.092 65.9088 0 42.5011 0C19.0933 0 0.000976562 19.092 0.000976562 42.4999C0.000976562 65.9078 19.0927 85 42.5011 85Z" fill="#364F6B"/>
<path d="M5.42687 4.86973H33.063V43.0705H5.42687C3.1538 43.0705 1.29443 41.2729 1.29443 39.0757V8.86421C1.29443 6.66684 3.1538 4.86973 5.42687 4.86973Z" fill="#24A0A8"/>
<path d="M6.57876 3.55849H33.0636V41.7593H6.57876C4.40098 41.7593 2.61914 40.0366 2.61914 37.9308V7.38662C2.61914 5.28122 4.40098 3.55816 6.57876 3.55816V3.55849Z" fill="white"/>
<path d="M5.42687 0.000831604H33.063V38.2016H1.29443V3.99531C1.29443 1.79794 3.1538 0.000831604 5.42687 0.000831604Z" fill="#3FC1C9"/>
<path d="M4.79999 38.2016H1.29492V3.9953C1.29492 2.00445 2.82159 0.341318 4.79982 0.0469742V38.2016H4.79999Z" fill="#24A0A8"/>
<path d="M4.21773 40.9998H33.0631V41.3016H4.7068C4.53598 41.2123 4.37278 41.1113 4.21773 40.9998ZM33.0631 38.7058V39.0076H2.77904C2.74899 38.9083 2.72293 38.8077 2.70068 38.7058H33.0631ZM33.0631 39.4705V39.7726H3.10991C3.0538 39.6742 3.00183 39.5736 2.95485 39.4705H33.0631ZM33.0631 40.2351V40.5369H3.68432C3.59152 40.4406 3.50403 40.34 3.42135 40.2351H33.0631Z" fill="#DFE1E3"/>
<path d="M12.0894 32.0687H22.4528V32.6627H12.0894V32.0687ZM14.059 33.098H20.4832V33.6915H14.059V33.098Z" fill="white"/>
<path d="M8.70611 40.2351V46.5645H8.70528C8.7179 46.8623 8.72437 47.192 8.73051 47.5312C8.79111 50.7161 8.8698 54.8625 16.027 54.822L16.0287 54.8204H30.1635V54.822C31.7433 54.8111 33.3923 54.4558 34.539 53.5073C35.4338 52.7676 36.0286 51.6493 36.0439 50.0255H36.0422V27.3552C36.0422 24.6153 37.9373 22.8365 40.3485 22.0597C41.2559 21.7675 42.2384 21.6186 43.2191 21.6156C44.1984 21.613 45.1777 21.7562 46.0778 22.0476C48.4258 22.8083 50.2508 24.5627 50.2508 27.3554V41.9036L50.2491 41.9084C50.2373 42.8469 50.3175 43.7547 50.5048 44.5882C50.6776 45.3572 50.9411 46.0614 51.3073 46.6632L51.3103 46.6675L54.3925 51.9357L53.7196 52.3301L50.6379 47.0625C50.2274 46.3858 49.9339 45.6051 49.7434 44.7599C49.5436 43.8685 49.4577 42.9013 49.4695 41.9041H49.4678V27.3559C49.4678 24.9635 47.8811 23.4526 45.8396 22.791C45.0162 22.5245 44.1182 22.3934 43.2191 22.396C42.3203 22.3987 41.4193 22.5353 40.5872 22.8031C38.481 23.4816 36.8258 25.0134 36.8258 27.3557V50.026L36.8242 50.0295C36.8067 51.9186 36.1009 53.2309 35.0379 54.1106C33.7358 55.1876 31.9048 55.5908 30.1655 55.6021L30.1638 55.6038H16.0287V55.6021C8.10431 55.6466 8.01765 51.0643 7.95058 47.5441C7.94443 47.2176 7.93846 46.9001 7.92451 46.5822L7.92285 46.5653V40.236H8.70544L8.70611 40.2351Z" fill="white"/>
<path d="M17.1787 7.58387C19.5306 7.58387 21.6599 8.53713 23.201 10.0781C24.7421 11.6192 25.6949 13.7482 25.6949 16.0999C25.6949 18.4517 24.7416 20.5812 23.201 22.1223C21.6599 23.6634 19.5306 24.6165 17.1787 24.6165C14.8267 24.6165 12.6978 23.6632 11.1568 22.1223C9.61569 20.5812 8.6626 18.4522 8.6626 16.0999C8.6626 13.748 9.61585 11.619 11.1568 10.0781C12.6978 8.53713 14.8269 7.58387 17.1787 7.58387ZM23.2799 20.8061C22.7425 20.5523 22.0532 20.3484 21.2708 20.1943C21.1994 20.3462 21.124 20.497 21.0438 20.6454C20.4103 21.8241 19.511 22.8823 18.3466 23.7162C20.0069 23.464 21.4927 22.6819 22.6271 21.548C22.86 21.3151 23.0782 21.0669 23.2802 20.8056L23.2799 20.8061ZM16.0112 23.7167C14.8468 22.8823 13.9477 21.8251 13.3137 20.6459C13.2345 20.4986 13.1594 20.3484 13.0886 20.1973C12.3073 20.3511 11.618 20.5544 11.0781 20.8066C11.2802 21.0679 11.498 21.3156 11.7309 21.5487C12.8646 22.6824 14.3509 23.4645 16.0112 23.7167ZM10.6129 20.1328C11.1925 19.8454 11.9338 19.6141 12.772 19.4386C12.4271 18.4972 12.2329 17.5057 12.1902 16.5093H9.48553C9.55526 17.8336 9.95851 19.0689 10.6134 20.1333L10.6129 20.1328ZM9.48503 15.6973H12.1884C12.2311 14.6088 12.4545 13.5279 12.8581 12.5115C12.0465 12.3465 11.3231 12.13 10.7444 11.8619C10.0111 12.9727 9.55775 14.2844 9.48553 15.6973H9.48503ZM11.2365 11.1963C11.7765 11.4271 12.4466 11.6139 13.1973 11.756C13.2405 11.6707 13.2848 11.5857 13.3306 11.5017C13.9616 10.342 14.8511 9.30395 15.9991 8.48566C14.3445 8.74 12.8626 9.5211 11.7312 10.6525C11.5574 10.8258 11.3929 11.0074 11.2362 11.1968L11.2365 11.1963ZM18.3592 8.48533C19.5075 9.30395 20.3972 10.342 21.0277 11.5013C21.0744 11.5862 21.1187 11.672 21.1623 11.7583C21.9149 11.6164 22.5849 11.4291 23.1228 11.197C22.9661 11.0071 22.8011 10.8256 22.6273 10.6518C21.4959 9.52043 20.0145 8.73933 18.3589 8.485L18.3592 8.48533ZM23.616 11.8639C23.0391 12.1325 22.3153 12.3498 21.5023 12.5148C21.9048 13.5304 22.1272 14.6103 22.1699 15.6972H24.8736C24.8006 14.2856 24.348 12.9744 23.616 11.8639ZM24.8733 16.509H22.1687C22.1261 17.5044 21.9323 18.4947 21.5878 19.4348C22.4282 19.6108 23.1698 19.8429 23.7464 20.1316C24.4008 19.0678 24.804 17.8323 24.8733 16.509ZM17.5854 8.93855V12.0917C18.529 12.0772 19.4614 12.012 20.321 11.8948L20.3175 11.8883C19.6895 10.7348 18.779 9.71234 17.5854 8.93855ZM17.5854 12.9038V15.6972H21.3607C21.3162 14.6559 21.0916 13.6235 20.687 12.6586C19.7155 12.8062 18.6547 12.888 17.5852 12.9041V12.9038H17.5854ZM17.5854 16.509V19.0286C18.6879 19.0452 19.7818 19.1314 20.7777 19.2877C21.1203 18.3981 21.3142 17.4566 21.3591 16.5092H17.5854V16.509ZM17.5854 19.8402V23.2581C18.7863 22.4704 19.7021 21.4315 20.3309 20.2617C20.368 20.193 20.4042 20.1238 20.439 20.0536C19.5472 19.9264 18.5727 19.855 17.5854 19.8402ZM16.7732 23.2581V19.8407C15.7875 19.8568 14.8138 19.9287 13.9214 20.0567C13.9563 20.1254 13.9915 20.1938 14.0282 20.2617C14.6574 21.4318 15.5723 22.4704 16.7737 23.2581H16.7732ZM16.7732 19.0284V16.509H13.0001C13.0446 17.4574 13.2391 18.3997 13.5828 19.2911C14.579 19.1343 15.6726 19.0469 16.7734 19.0289V19.0284H16.7732ZM16.7732 15.6968V12.903C15.7059 12.886 14.6451 12.8032 13.6728 12.6553C13.2673 13.6207 13.0427 14.6544 12.9977 15.697H16.7732V15.6968ZM16.7732 12.0913V8.93872C15.5801 9.71251 14.6692 10.735 14.0416 11.8885L14.04 11.8924C14.8999 12.01 15.8314 12.0762 16.7737 12.0915H16.7732V12.0913Z" fill="white"/>
<path d="M62.31 81.2255C56.3896 78.0667 47.7336 67.2286 47.3287 60.1116C46.9232 52.9945 45.5898 53.1174 52.1745 48.8785C58.6553 44.6472 58.0552 45.7267 64.4081 48.9601C70.761 52.1942 77.237 64.9456 77.7125 71.1692C78.2593 78.3275 68.2309 84.3843 62.31 81.2255Z" fill="#DFE1E3"/>
<path d="M47.9134 52.0791C48.6786 51.2095 49.9906 50.2837 52.1744 48.8777C58.6553 44.6468 58.0543 45.7259 64.408 48.9595C70.7609 52.1937 77.2374 64.9451 77.7121 71.169C77.8379 72.8142 77.4038 74.4013 76.59 75.8323C73.4774 79.9355 67.246 82.3001 63.0626 80.068C57.1347 76.9053 48.4683 66.0542 48.0629 58.9289C47.853 55.2405 47.394 53.4944 47.9139 52.0791H47.9134Z" fill="white"/>
<path d="M50.1164 68.1148C48.5331 65.3148 47.4645 62.5032 47.3287 60.1111C46.9232 52.994 45.5898 53.1169 52.1745 48.878C58.6553 44.6467 58.0552 45.7262 64.4081 48.9595C66.5231 50.0365 68.6511 52.1679 70.5672 54.7619L50.1169 68.1146H50.1164V68.1148Z" fill="#FBB429"/>
<path d="M52.571 48.6199L60.761 61.1645L59.9223 61.7123L51.7305 49.1656L52.1742 48.8782L52.5705 48.6201H52.571V48.6199Z" fill="#FBAB08"/>
<path d="M53.743 51.3315C54.4035 50.9003 55.297 51.0881 55.7282 51.7486L59.7635 57.929C60.195 58.5896 60.0074 59.4831 59.3468 59.9142C58.6862 60.3454 57.7931 60.1576 57.3619 59.4971L53.3266 53.3162C52.8955 52.6556 53.0832 51.7624 53.7433 51.331L53.743 51.3315Z" fill="#FBAB08"/>
<path d="M54.5556 52.5774H54.5564C55.126 52.205 55.8963 52.367 56.2682 52.9371L58.8927 56.9563C59.2646 57.5263 59.1031 58.2963 58.533 58.6686C57.9629 59.041 57.1926 58.8795 56.8207 58.3089L54.1962 54.2897C53.8243 53.7192 53.9858 52.9493 54.5559 52.577L54.5556 52.5774Z" fill="white"/>
<path d="M42.9413 52.9257L41.5726 52.1275L41.9018 51.5635L43.2705 52.3622L42.9413 52.9261V52.9257ZM44.5428 51.3354L42.5649 48.2319L43.1141 47.8823L45.092 50.9853L44.5433 51.3349L44.5428 51.3354ZM46.7955 50.5689L46.7938 49.3892H47.4444L47.4461 50.5689H46.796H46.7955ZM45.7708 58.7612L43.6759 61.4684L43.1602 61.0705L45.2552 58.3633L45.7708 58.7612ZM43.6209 57.2223L42.3961 57.6795L42.1691 57.0699L43.3945 56.613L43.6214 57.2226L43.6209 57.2223ZM42.592 55.075L39.7603 54.7689L39.829 54.1215L42.6607 54.4271L42.592 55.075Z" fill="white"/>
</g>
<defs>
<clipPath id="clip0">
<rect width="85" height="85" fill="white"/>
</clipPath>
</defs>
</svg>
