<svg width="85" height="85" viewBox="0 0 85 85" fill="none" xmlns="http://www.w3.org/2000/svg">
<g clip-path="url(#clip0)">
<path d="M42.5 0.000999451C65.9721 0.000999451 85 19.0289 85 42.5005C85 65.9726 65.9721 85.0005 42.5 85.0005C19.0274 85.0005 0 65.9726 0 42.5005C0 19.0289 19.0279 0.000999451 42.5 0.000999451Z" fill="#3FC1C9"/>
<path d="M81.0455 75.5765L68.3389 72.2478V78.9125L81.0455 75.5765Z" fill="#FFBA1B"/>
<path d="M68.3391 74.1969C69.2043 75.1048 69.2822 76.0259 68.3391 76.9633H8.68848V74.1969H68.3391Z" fill="#FF5B61"/>
<path d="M68.3391 74.1968C69.1808 73.6015 69.2661 72.9567 68.3391 72.2477H8.68848V74.1968H68.3391Z" fill="#EC4B53"/>
<path d="M8.68896 78.9125V72.2478H6.80518V78.9125H8.68896Z" fill="#ECF0F1"/>
<path d="M3.03711 77.0291V74.1311C3.03711 73.0952 3.88495 72.2477 4.92089 72.2477H6.80467V78.9123H4.92089C3.88495 78.9125 3.03711 78.0647 3.03711 77.0291Z" fill="#3FC1C9"/>
<path d="M81.9636 75.7131V75.4354L76.2817 74.3271V76.8127L81.9636 75.7131Z" fill="#666666"/>
<path d="M68.3391 76.9633C69.1808 77.5586 69.2661 78.2031 68.3391 78.9125H8.68848V76.9633H68.3391Z" fill="#EC4B53"/>
<path d="M42.4885 74.3693C31.6072 70.1497 25.8509 57.1273 26.606 46.2003C27.2282 37.2054 32.2635 29.6298 42.4885 29.5504C52.7131 29.6296 57.7489 37.2054 58.3711 46.2003C59.1266 57.1273 53.3697 70.1497 42.4885 74.3693Z" fill="#FFBA1B"/>
<path d="M29.5733 36.3943C32.0554 32.4512 36.1008 29.7902 41.8576 29.5662C41.021 33.7945 37.2926 36.983 32.8192 36.983C31.6765 36.983 30.5826 36.7744 29.5728 36.3943H29.5733Z" fill="#F5A209"/>
<path d="M43.1196 29.5662C48.8764 29.79 52.9219 32.4511 55.404 36.3943C54.3946 36.7744 53.3007 36.983 52.1575 36.983C47.6841 36.983 43.9557 33.7945 43.1191 29.5662H43.1196Z" fill="#F5A209"/>
<path d="M32.8193 35.2739C37.8946 35.2739 42.0332 31.1348 42.0332 26.0595C42.0332 20.9842 37.8941 16.8456 32.8193 16.8456C27.7441 16.8456 23.605 20.9847 23.605 26.0595C23.605 31.1348 27.7441 35.2739 32.8193 35.2739Z" fill="#364F6B"/>
<path d="M32.8193 33.7331C37.0458 33.7331 40.493 30.2859 40.493 26.0593C40.493 21.8327 37.0458 18.3856 32.8193 18.3856C28.5927 18.3856 25.1455 21.8327 25.1455 26.0593C25.1455 30.2859 28.5922 33.7331 32.8193 33.7331Z" fill="white"/>
<path d="M25.1812 25.3217C25.1581 25.5642 25.146 25.8108 25.146 26.0593C25.146 30.2972 28.5819 33.733 32.8197 33.733C37.0571 33.733 40.4935 30.2972 40.4935 26.0593C40.4935 25.8106 40.4809 25.5642 40.4583 25.3217C40.0869 29.2129 36.8088 32.2573 32.8204 32.2573C28.8315 32.2573 25.5534 29.2131 25.182 25.3217H25.1812Z" fill="#ECF0F1"/>
<path d="M52.1577 35.2739C57.233 35.2739 61.3721 31.1348 61.3721 26.0595C61.3721 20.9842 57.2327 16.8456 52.1577 16.8456C47.0828 16.8456 42.9434 20.9847 42.9434 26.0595C42.9434 31.1348 47.0828 35.2739 52.1577 35.2739Z" fill="#364F6B"/>
<path d="M34.1125 29.3055C36.4731 29.3055 38.3987 27.3798 38.3987 25.0193C38.3987 22.6587 36.4731 20.7334 34.1125 20.7334C31.7519 20.7334 29.8267 22.659 29.8267 25.0193C29.8268 27.3798 31.7519 29.3055 34.1125 29.3055Z" fill="#2AA7AE"/>
<path d="M52.1581 33.7331C56.3847 33.7331 59.8319 30.2859 59.8319 26.0593C59.8319 21.8327 56.3847 18.3856 52.1581 18.3856C47.9315 18.3856 44.4844 21.8327 44.4844 26.0593C44.4844 30.2859 47.9315 33.7331 52.1581 33.7331Z" fill="white"/>
<path d="M44.5196 25.3217C44.4965 25.5642 44.4844 25.8108 44.4844 26.0593C44.4844 30.2972 47.9201 33.733 52.1581 33.733C56.396 33.733 59.8319 30.2972 59.8319 26.0593C59.8319 25.8106 59.8197 25.5642 59.7967 25.3217C59.4253 29.2129 56.1475 32.2573 52.1583 32.2573C48.1699 32.2573 44.8918 29.2131 44.5202 25.3217H44.5196Z" fill="#ECF0F1"/>
<path d="M34.1126 28.6556C36.1158 28.6556 37.7492 27.0222 37.7492 25.019C37.7492 23.0159 36.1158 21.3829 34.1126 21.3829C32.11 21.3829 30.4766 23.0164 30.4766 25.019C30.4766 27.0222 32.11 28.6556 34.1126 28.6556Z" fill="#3FC1C9"/>
<path d="M34.1126 26.8118C35.1002 26.8118 35.9049 26.0067 35.9049 25.0195C35.9049 24.0324 35.0997 23.2272 34.1126 23.2272C33.1255 23.2272 32.3203 24.0324 32.3203 25.0195C32.3203 26.0071 33.1255 26.8118 34.1126 26.8118Z" fill="#666666"/>
<path d="M50.8648 29.3055C53.2254 29.3055 55.1507 27.3798 55.1507 25.0193C55.1507 22.6587 53.2251 20.7334 50.8648 20.7334C48.5042 20.7334 46.5786 22.659 46.5786 25.0193C46.5786 27.3798 48.5042 29.3055 50.8648 29.3055Z" fill="#2AA7AE"/>
<path d="M50.8646 28.6556C52.8677 28.6556 54.5007 27.0222 54.5007 25.019C54.5007 23.0159 52.8672 21.3829 50.8646 21.3829C48.8615 21.3829 47.228 23.0164 47.228 25.019C47.2282 27.0222 48.8615 28.6556 50.8646 28.6556Z" fill="#3FC1C9"/>
<path d="M50.8646 26.8118C51.8517 26.8118 52.6569 26.0067 52.6569 25.0195C52.6569 24.0324 51.8517 23.2272 50.8646 23.2272C49.8769 23.2272 49.0723 24.0324 49.0723 25.0195C49.0723 26.0071 49.8774 26.8118 50.8646 26.8118Z" fill="#666666"/>
<path d="M42.4885 13.2221C42.4885 10.2174 52.4257 16.0012 58.81 9.46931C57.9557 29.4334 48.5798 3.81051 42.4885 29.5501C36.3982 3.81051 27.0213 29.4329 26.1675 9.46931C32.5513 16.0012 42.4885 10.2174 42.4885 13.2221Z" fill="#364F6B"/>
<path d="M57.9982 15.3863C55.4268 23.33 47.7379 9.93566 42.4884 32.1183C37.2393 9.93516 29.5504 23.33 26.9785 15.3863C31.1933 17.0894 39.3895 14.4086 42.4884 26.0589C45.6589 14.227 53.7834 17.0894 57.9982 15.3863Z" fill="#FFBA1B"/>
<path d="M55.6776 36.8048C55.9397 37.5729 56.1318 64.6663 46.4302 72.3074C52.3342 70.6735 72.1834 49.0169 55.6776 36.8048Z" fill="#364F6B"/>
<path d="M42.4883 26.5089L39.7837 29.2663L42.4883 34.7679V26.5084V26.5089Z" fill="#FF5B61"/>
<path d="M42.4883 26.5089L45.1928 29.2663L42.4883 34.7679V26.5084V26.5089Z" fill="#EC4B53"/>
<path d="M29.3223 36.8048C29.0597 37.5729 28.8678 64.6663 38.5697 72.3074C32.6659 70.6735 12.8167 49.0169 29.3223 36.8048Z" fill="#364F6B"/>
<path d="M46.369 69.9308C46.9574 69.9308 47.4712 70.2887 47.7476 70.8218C48.0242 70.2892 48.538 69.9308 49.1262 69.9308C49.7146 69.9308 50.2284 70.2887 50.5048 70.8218C50.7814 70.2892 51.2952 69.9308 51.8834 69.9308C52.7643 69.9308 53.4785 70.7338 53.4785 71.7241C53.4785 72.7139 52.7643 73.5169 51.8834 73.5169C51.295 73.5169 50.7812 73.159 50.5048 72.6259C50.2282 73.1585 49.7144 73.5169 49.1262 73.5169C48.5378 73.5169 48.024 73.159 47.7476 72.6259C47.471 73.1585 46.9569 73.5169 46.369 73.5169C45.4876 73.5169 44.7739 72.7139 44.7739 71.7241C44.7739 70.7336 45.4876 69.9308 46.369 69.9308Z" fill="white"/>
<path d="M45.5353 73.529C45.8967 74.7304 46.4171 75.8413 46.4171 75.8413C46.4171 75.8413 47.2271 74.537 47.1939 73.5499C47.1338 71.7614 45.1734 72.3272 45.5353 73.5285V73.529ZM51.0996 73.529C51.3378 74.7304 51.7446 75.8413 51.7446 75.8413C51.7446 75.8413 52.6882 74.537 52.7566 73.5499C52.8798 71.7614 50.8619 72.3272 51.0996 73.5285V73.529ZM48.4037 73.529C48.6527 74.7304 49.0686 75.8413 49.0686 75.8413C49.0686 75.8413 50.0009 74.537 50.0605 73.5499C50.1689 71.7614 48.1553 72.3272 48.4035 73.5285V73.529H48.4037Z" fill="#666666"/>
<path d="M38.5162 69.9308C37.9278 69.9308 37.414 70.2887 37.1376 70.8218C36.861 70.2892 36.3472 69.9308 35.759 69.9308C35.1706 69.9308 34.6568 70.2887 34.3804 70.8218C34.1038 70.2892 33.59 69.9308 33.0018 69.9308C32.1209 69.9308 31.4067 70.7338 31.4067 71.7241C31.4067 72.7139 32.1209 73.5169 33.0018 73.5169C33.5902 73.5169 34.104 73.159 34.3804 72.6259C34.657 73.1585 35.1708 73.5169 35.759 73.5169C36.3474 73.5169 36.8612 73.159 37.1376 72.6259C37.4142 73.1585 37.9283 73.5169 38.5162 73.5169C39.3976 73.5169 40.1113 72.7139 40.1113 71.7241C40.1113 70.7336 39.3976 69.9308 38.5162 69.9308Z" fill="white"/>
<path d="M39.3498 73.529C38.9884 74.7304 38.4679 75.8413 38.4679 75.8413C38.4679 75.8413 37.658 74.537 37.6912 73.5499C37.7513 71.7614 39.7117 72.3272 39.3498 73.5285V73.529ZM33.7855 73.529C33.5472 74.7304 33.1405 75.8413 33.1405 75.8413C33.1405 75.8413 32.1969 74.537 32.1285 73.5499C32.0053 71.7614 34.0232 72.3272 33.7855 73.5285V73.529ZM36.4814 73.529C36.2324 74.7304 35.8165 75.8413 35.8165 75.8413C35.8165 75.8413 34.8842 74.537 34.8246 73.5499C34.7162 71.7614 36.7298 72.3272 36.4816 73.5285V73.529H36.4814Z" fill="#666666"/>
<path d="M32.4328 24.781C32.9262 24.781 33.3289 24.3786 33.3289 23.8844C33.3289 23.3906 32.9265 22.9882 32.4328 22.9882C31.9394 22.9882 31.5366 23.3906 31.5366 23.8844C31.5366 24.3781 31.9389 24.781 32.4328 24.781Z" fill="white"/>
<path d="M49.6027 24.6189C50.0961 24.6189 50.4993 24.2165 50.4993 23.7228C50.4993 23.2291 50.0966 22.8261 49.6027 22.8261C49.1093 22.8261 48.7065 23.2286 48.7065 23.7228C48.7065 24.2165 49.1088 24.6189 49.6027 24.6189Z" fill="white"/>
</g>
<defs>
<clipPath id="clip0">
<rect width="85" height="85" fill="white"/>
</clipPath>
</defs>
</svg>
