<svg width="456" height="456" viewBox="0 0 456 456" fill="none" xmlns="http://www.w3.org/2000/svg">
<g clip-path="url(#clip0)">
<path d="M228.168 -0.000143159C136.017 -0.000143159 52.9411 55.5099 17.6779 140.647C-17.5852 225.779 1.90434 323.774 67.0635 388.937C124.58 446.691 208.569 469.319 287.316 448.276C366.063 427.237 427.568 365.727 448.611 286.984C469.651 208.238 447.023 124.248 389.268 66.7321C346.635 23.8651 288.623 -0.164085 228.168 -0.000143159V-0.000143159ZM105.008 395.151V375.435C105.008 307.419 160.147 252.276 228.168 252.276C296.188 252.276 351.327 307.419 351.327 375.435V395.151C278.112 449.189 178.224 449.189 105.008 395.151V395.151ZM371.313 378.398V375.435C371.313 296.509 307.098 232.294 228.168 232.294C149.238 232.294 85.023 296.509 85.023 375.435V378.398C43.6901 339.227 20.2893 284.779 20.3205 227.833C20.3205 113.225 113.561 19.9852 228.168 19.9852C342.775 19.9852 436.015 113.225 436.015 227.833C436.042 284.779 412.646 339.227 371.309 378.398H371.313Z" fill="#6CCFD6"/>
<path d="M228.621 67.0991C185.957 67.0991 151.369 101.687 151.369 144.351C151.369 187.015 185.957 221.603 228.621 221.603C271.285 221.603 305.872 187.015 305.872 144.351C305.822 101.707 271.265 67.1499 228.621 67.0991ZM228.621 201.618C196.995 201.618 171.354 175.976 171.354 144.351C171.354 112.722 196.995 87.0844 228.621 87.0844C260.25 87.0844 285.887 112.722 285.887 144.351C285.852 175.964 260.234 201.582 228.621 201.618Z" fill="#6CCFD6"/>
</g>
<defs>
<clipPath id="clip0">
<rect width="456" height="456" fill="white"/>
</clipPath>
</defs>
</svg>
