<?xml version="1.0" standalone="no"?>
<!DOCTYPE svg PUBLIC "-//W3C//DTD SVG 20010904//EN"
 "http://www.w3.org/TR/2001/REC-SVG-20010904/DTD/svg10.dtd">
<svg version="1.0" xmlns="http://www.w3.org/2000/svg"
 width="700.000000pt" height="700.000000pt" viewBox="0 0 700.000000 700.000000"
 preserveAspectRatio="xMidYMid meet">
<metadata>
Created by potrace 1.11, written by Peter Selinger 2001-2013
</metadata>
<g transform="translate(0.000000,700.000000) scale(0.100000,-0.100000)"
fill="#000000" stroke="none">
<path d="M1419 6006 c-2 -2 -46 -7 -98 -11 -52 -3 -97 -8 -100 -9 -3 -2 -37
-7 -74 -11 -37 -3 -78 -8 -90 -11 -12 -2 -35 -6 -52 -9 -16 -3 -52 -10 -80
-15 -27 -6 -59 -12 -70 -14 -60 -12 -189 -48 -205 -58 -39 -24 -54 -69 -57
-163 -1 -49 -2 -95 -2 -100 -1 -6 -89 -10 -244 -11 -224 0 -246 -2 -278 -20
-19 -11 -42 -35 -51 -54 -17 -33 -18 -160 -18 -2230 0 -2107 1 -2197 18 -2229
21 -39 73 -71 116 -71 16 0 75 21 130 46 164 75 177 81 277 118 82 30 326 107
386 121 10 3 45 12 78 20 33 8 76 18 95 21 19 3 38 8 42 10 7 4 203 42 263 50
17 2 57 8 90 13 33 5 89 13 125 16 36 4 72 9 82 10 95 18 642 25 838 11 247
-17 556 -61 745 -106 213 -50 213 -50 343 -19 48 11 96 22 107 25 131 26 176
35 209 39 21 3 41 7 45 9 3 2 31 7 61 10 30 4 71 8 90 11 19 3 58 7 85 11 28
3 66 7 85 10 223 26 850 26 1010 0 14 -3 50 -7 80 -10 75 -7 134 -15 205 -28
33 -5 71 -12 85 -14 14 -3 59 -11 100 -19 41 -9 85 -17 96 -19 61 -12 341 -89
424 -116 141 -48 314 -117 415 -167 50 -25 101 -47 115 -49 62 -12 128 24 151
83 5 15 9 885 9 2216 0 2067 -1 2194 -18 2227 -34 69 -54 73 -328 73 -134 0
-245 3 -245 6 -1 3 -3 47 -5 98 -3 99 -18 142 -59 169 -25 16 -111 42 -205 60
-143 28 -235 44 -285 49 -33 4 -67 9 -76 10 -137 26 -688 27 -864 2 -139 -20
-164 -24 -225 -37 -25 -5 -56 -12 -70 -14 -111 -20 -365 -106 -503 -170 -190
-88 -402 -229 -549 -364 -36 -34 -68 -62 -71 -62 -3 0 -27 21 -55 48 -219 210
-487 368 -808 477 -105 36 -273 79 -349 91 -22 3 -58 9 -80 14 -22 5 -71 11
-110 15 -38 4 -81 9 -95 12 -30 6 -575 15 -581 9z m426 -280 c72 -3 141 -8
155 -10 14 -2 50 -7 80 -11 87 -10 247 -43 345 -71 342 -96 618 -252 848 -477
l87 -86 0 -608 c0 -334 2 -1095 3 -1691 1 -595 1 -1082 -1 -1082 -1 0 -20 11
-41 24 -263 167 -690 311 -1066 361 -22 3 -54 8 -71 10 -17 2 -57 7 -90 11
-32 3 -72 8 -89 10 -79 11 -692 10 -830 -2 -142 -12 -278 -24 -300 -27 -12 -2
-18 3560 -6 3567 4 3 23 8 42 11 19 3 45 8 59 10 14 3 36 8 50 10 27 6 126 20
200 30 80 10 143 15 275 21 72 4 131 7 132 8 1 1 21 1 45 0 24 -1 102 -5 173
-8z m3635 -1 c91 -3 185 -8 210 -11 136 -16 207 -26 318 -46 l122 -21 0 -66
c1 -88 1 -3425 0 -3474 0 -32 -3 -37 -17 -33 -25 7 -155 21 -293 31 -308 23
-723 19 -935 -10 -16 -3 -52 -7 -80 -10 -190 -20 -504 -95 -698 -166 -128 -47
-310 -131 -396 -183 -32 -20 -63 -36 -67 -36 -5 0 -9 735 -9 1685 l0 1684 40
42 c280 291 684 498 1125 575 25 4 47 8 50 9 46 11 181 25 310 31 63 4 116 8
118 9 2 2 11 1 20 -1 9 -1 91 -6 182 -9z m-4892 -410 c4 -3 7 -777 7 -1718 1
-1573 2 -1715 17 -1743 32 -60 95 -81 192 -64 54 10 105 16 201 25 33 4 75 8
93 11 97 13 267 19 517 19 289 0 379 -5 550 -30 102 -15 110 -17 205 -36 82
-16 279 -67 325 -84 l40 -16 -50 5 c-182 18 -263 21 -535 21 -168 0 -345 -5
-395 -9 -49 -5 -99 -10 -110 -11 -40 -4 -160 -18 -175 -20 -8 -2 -40 -7 -70
-11 -30 -4 -57 -9 -60 -9 -3 -1 -27 -5 -55 -9 -27 -4 -63 -12 -80 -16 -16 -5
-47 -11 -68 -14 -140 -21 -618 -164 -814 -244 l-53 -22 0 1990 0 1989 43 3
c74 5 268 1 275 -7z m6138 3 c2 -3 4 -857 3 -1899 0 -1042 -1 -1934 -1 -1983
1 -105 21 -102 -193 -23 -262 97 -552 174 -834 223 -218 38 -240 40 -476 61
-116 10 -686 10 -788 0 -42 -4 -98 -10 -124 -13 -26 -2 -44 -2 -42 1 5 5 189
58 240 69 181 40 222 48 349 66 229 32 835 35 1065 5 17 -2 57 -7 90 -10 33
-3 74 -8 90 -11 172 -25 204 -24 245 5 14 9 33 33 42 52 17 32 18 139 18 1743
0 1000 4 1712 9 1715 11 7 300 5 307 -1z"/>
</g>
</svg>
