<svg width="85" height="85" viewBox="0 0 85 85" fill="none" xmlns="http://www.w3.org/2000/svg">
<g clip-path="url(#clip0)">
<path d="M42.5015 84.9992C65.9098 84.9992 85.0011 65.9071 85.0011 42.4996C85.0011 19.0921 65.9097 0 42.5015 0C19.0934 0 0.00195312 19.0921 0.00195312 42.4996C0.00195313 65.9079 19.0939 84.9992 42.5015 84.9992Z" fill="#61E4EC"/>
<path d="M36.0459 17.0953C36.4293 17.0953 36.7996 17.1527 37.1486 17.2586C37.7389 14.4553 40.2242 12.3519 43.2023 12.3519C46.6167 12.3519 49.3848 15.1177 49.3886 18.5315C49.516 18.5162 49.6448 18.5077 49.7766 18.5077C51.4812 18.5077 52.8613 19.888 52.8613 21.5924C52.8613 23.2969 51.4811 24.6771 49.7766 24.6771C48.6915 24.6771 47.7361 24.1173 47.1871 23.2702C46.1105 24.1781 44.7203 24.7255 43.2021 24.7255C41.6087 24.7255 40.1564 24.1235 39.0607 23.1344C38.3721 24.0491 37.2779 24.6388 36.0458 24.6388C33.9631 24.6388 32.2739 22.9496 32.2739 20.867C32.2741 18.7838 33.9633 17.0953 36.0459 17.0953Z" fill="white"/>
<path d="M44.9441 59.8042C45.2386 59.8042 45.5223 59.8487 45.7906 59.9298C46.2438 57.779 48.15 56.1656 50.4342 56.1656C53.0527 56.1656 55.1767 58.2873 55.1798 60.9058C55.2773 60.8935 55.3761 60.8874 55.4773 60.8874C56.7847 60.8874 57.8437 61.9464 57.8437 63.2544C57.8437 64.5618 56.7847 65.6208 55.4773 65.6208C54.6446 65.6208 53.9123 65.1913 53.4906 64.5412C52.6649 65.2381 51.5983 65.6576 50.4343 65.6576C49.2121 65.6576 48.098 65.196 47.2575 64.4369C46.7299 65.1385 45.8895 65.5909 44.9441 65.5909C43.346 65.5909 42.0503 64.2958 42.0503 62.6978C42.0503 61.0997 43.3454 59.8042 44.9441 59.8042Z" fill="white"/>
<path d="M14.608 25.6357C14.7514 25.6357 14.8885 25.6571 15.0197 25.6969C15.2398 24.651 16.1669 23.8666 17.2778 23.8666C18.5515 23.8666 19.5843 24.8987 19.5857 26.1724C19.6332 26.1662 19.6815 26.1639 19.7307 26.1639C20.3672 26.1639 20.8817 26.6792 20.8817 27.3149C20.8817 27.9514 20.3672 28.4659 19.7307 28.4659C19.3258 28.4659 18.9693 28.2565 18.7645 27.9406C18.3627 28.2796 17.8436 28.4835 17.2777 28.4835C16.6833 28.4835 16.1413 28.2589 15.7326 27.89C15.4757 28.2311 15.0678 28.4513 14.6077 28.4513C13.8302 28.4513 13.2007 27.8209 13.2007 27.0443C13.2007 26.2677 13.831 25.6373 14.6077 25.6373V25.6357H14.608Z" fill="white"/>
<path d="M77.0003 16.8938L69.4537 9.34711L47.8672 30.9334L55.4139 38.4801L77.0003 16.8938Z" fill="#DE386B"/>
<path d="M53.5633 40.3303L46.0166 32.7837L47.8668 30.9326L55.4135 38.4793L53.5624 40.3303H53.5633Z" fill="white"/>
<path d="M53.5633 40.3303L46.0166 32.7836L43.3091 35.4912C42.8145 35.9849 42.8154 36.7932 43.3091 37.2878L49.06 43.0387C49.5537 43.5324 50.362 43.5324 50.8558 43.0387L53.5633 40.3311V40.3303Z" fill="#2AB5BD"/>
<path d="M74.9307 14.8234L71.524 11.4173L49.9375 33.0037L53.3443 36.4099L74.9307 14.8234Z" fill="#FC5185"/>
<path d="M77.0003 16.8938L69.4536 9.3471L77.3423 6.31684L80.0314 9.00511L77.0011 16.8938H77.0003Z" fill="#F0B97D"/>
<path d="M81.3763 5.23029L81.1171 4.97115L77.3423 6.31685L80.0314 9.00512L81.3771 5.23096L81.3763 5.23029Z" fill="#807D7D"/>
<path d="M74.9307 14.8234L71.5239 11.4173L78.0807 7.05426L79.2944 8.26733L74.9314 14.8232H74.9307V14.8234Z" fill="#FED198"/>
<path d="M60.6494 46.0038C60.6494 46.0038 60.9393 47.2122 58.6774 49.051C56.4154 50.8898 54.4033 51.339 54.4033 51.339C54.4033 51.339 54.8527 49.3277 56.6913 47.065C58.5301 44.8022 59.7385 45.0929 59.7385 45.0929L60.2653 45.4779L60.6494 46.0038Z" fill="#FFBA1B"/>
<path d="M64.1545 41.5181L63.9805 29.9137L56.7866 37.107L60.2417 45.7947L64.1545 41.5181Z" fill="#FFBA1B"/>
<path d="M65.9632 42.7318L65.8803 42.8016L65.796 42.873L65.7102 42.945L65.622 43.0186L65.5324 43.0929L65.4419 43.1688L65.3506 43.2455L65.2571 43.323L65.1628 43.4012L65.067 43.4802L64.9704 43.5593L64.8729 43.6398L64.7755 43.7203L64.6766 43.8016L64.5776 43.883L64.478 43.9635L64.3784 44.0448L64.278 44.1269L64.1783 44.2082L64.0779 44.2896L63.9775 44.3709L63.8779 44.4514L63.877 44.4522L63.7774 44.5328L63.6785 44.6133L63.5795 44.693V44.6938L63.4814 44.7735L63.3833 44.8517V44.8525L63.2858 44.9307L63.1901 45.0081L63.0949 45.0848L63.0006 45.1606L62.9078 45.235H62.907L62.8157 45.3085L62.726 45.3806L62.6371 45.452V45.4528L62.5504 45.5219H62.5496L62.4644 45.5901L62.3809 45.6575L62.2989 45.7227L62.2981 45.7236L62.2184 45.7872L62.1402 45.8493L62.065 45.9098L61.9921 45.9681H61.9913L61.9207 46.0249L61.8525 46.0793L61.7866 46.1323L61.7237 46.1829L61.6639 46.2312L61.6065 46.2772L61.552 46.3202L61.5014 46.3616H61.5005L61.4522 46.3999L61.4069 46.4351L61.3656 46.4681L61.3272 46.4989H61.3264L61.2919 46.5258L61.2611 46.5503L61.2351 46.5717H61.2342L61.2112 46.5893L61.1921 46.6046L61.1768 46.6161L61.166 46.6245L61.159 46.6298L61.1567 46.6313V46.6322L60.1361 45.6115L59.1147 44.5909C59.1147 44.5909 61.5415 41.5268 63.0154 39.7854C63.7846 38.8768 66.2421 37.5227 67.1805 38.5677C67.1966 38.5823 67.2127 38.5976 67.228 38.613C67.2433 38.6285 67.2579 38.6438 67.2717 38.6599C67.2855 38.676 67.2992 38.6929 67.3124 38.709C67.3255 38.7259 67.3376 38.7427 67.3492 38.7603C67.3615 38.7779 67.3729 38.7955 67.3829 38.8133C67.3937 38.8309 67.4037 38.8493 67.4136 38.8685C67.4236 38.887 67.4327 38.9061 67.4412 38.9253V38.9261L67.4658 38.9844C67.4734 39.0043 67.4804 39.0243 67.4872 39.045L67.5063 39.1063L67.5224 39.1699L67.5355 39.2343V39.2351C67.5393 39.2565 67.5424 39.2788 67.5454 39.3003L67.5531 39.3677L67.5577 39.436L67.56 39.5057L67.5592 39.5763L67.5569 39.6476L67.5522 39.7197V39.7205L67.5453 39.7934L67.5353 39.8669L67.5239 39.9422L67.5101 40.0174L67.4948 40.0932L67.4772 40.1699L67.4573 40.2466L67.4365 40.324L67.4135 40.4013L67.3882 40.4789L67.3622 40.5562L67.3346 40.6336V40.6344L67.3047 40.7118L67.274 40.7892V40.79L67.2418 40.8673L67.2081 40.9449L67.1736 41.0216H67.1744L67.1384 41.0974L67.1015 41.1733L67.0632 41.2485L67.024 41.3229L66.9841 41.3964L66.9435 41.4693L66.9013 41.5414V41.5422L66.8591 41.6136L66.8161 41.6841L66.7725 41.7532L66.728 41.8214L66.6835 41.8888L66.639 41.9541L66.5937 42.0185L66.5477 42.0814L66.5024 42.1428L66.4572 42.2026L66.4112 42.26L66.3652 42.3168L66.3199 42.3713L66.2739 42.4234L66.2288 42.474L66.1828 42.5223L66.1383 42.5683L66.0938 42.6128L66.0493 42.655L66.0063 42.6948L65.9633 42.7317L65.9632 42.7318ZM67.2283 38.612L67.272 38.6589C67.2582 38.6428 67.243 38.6273 67.2283 38.612Z" fill="#3FC1C9"/>
<path d="M61.4528 46.6922L59.0542 44.2937C58.9998 44.2392 58.9101 44.2392 58.8557 44.2937L58.0882 45.0612C58.0338 45.1156 58.0338 45.2053 58.0882 45.2597L60.4868 47.6583C60.5412 47.7127 60.6309 47.7127 60.6853 47.6583L61.4528 46.8908C61.5073 46.8365 61.5073 46.7467 61.4528 46.6922Z" fill="white"/>
<path d="M64.5109 39.4655C64.0831 39.7377 63.7165 40.0414 63.4926 40.3052C62.3149 41.6884 60.5244 43.9105 59.8572 44.7417C59.7943 44.8199 59.7415 44.8867 59.7 44.9388L59.2207 44.4595C59.302 44.3576 59.4277 44.1995 59.5864 44.0002C60.3655 43.024 61.9443 41.0542 63.0169 39.7859C63.3221 39.4248 63.8933 38.9945 64.5298 38.6718C65.4975 38.1802 66.6163 37.938 67.1821 38.5682L67.2296 38.6135L67.2732 38.661L67.3506 38.7614L67.3843 38.8144L67.415 38.8697L67.4258 38.898C66.7395 38.402 65.4696 38.8559 64.5112 39.4663L64.5109 39.4655Z" fill="#2AB5BD"/>
<path d="M40.3435 25.6978C40.3435 25.6978 39.1343 25.4071 37.2963 27.6699C35.4575 29.9326 35.0083 31.9439 35.0083 31.9439C35.0083 31.9439 37.0204 31.4953 39.2832 29.6566C41.5451 27.8178 41.2552 26.6085 41.2552 26.6085L40.8703 26.0826L40.3443 25.6976H40.3435V25.6978Z" fill="#FFBA1B"/>
<path d="M44.8294 22.1929L56.4338 22.3669L49.2399 29.5601L40.5522 26.1057L44.8286 22.1936L44.8294 22.1929Z" fill="#FFBA1B"/>
<path d="M43.6154 20.384L43.5457 20.4668L43.4743 20.5512L43.4023 20.6378L43.3287 20.7253L43.2544 20.815L43.1792 20.9054L43.1025 20.9974L43.0251 21.0909L42.9469 21.1852L42.8687 21.2803L42.789 21.3769H42.7882L42.7085 21.4744L42.628 21.5725L42.5475 21.6706L42.4661 21.7702L42.3848 21.8698L42.3034 21.9703L42.2221 22.0699L42.1407 22.1703L42.0594 22.2707L41.978 22.3712L41.8975 22.4708L41.817 22.5704L41.7365 22.6693L41.6568 22.7683L41.5778 22.8664L41.4988 22.9645L41.4206 23.0611L41.3432 23.1569L41.2665 23.2521L41.1906 23.3464V23.3472L41.1163 23.44L41.0427 23.5313L40.9707 23.6209H40.9698L40.8985 23.7099V23.7108L40.8287 23.7974L40.7605 23.8832L40.6938 23.9667L40.6285 24.0481L40.5649 24.1278L40.5028 24.2051L40.4423 24.281L40.384 24.3539L40.3265 24.4244L40.2729 24.4927L40.22 24.5579L40.1702 24.6208H40.1693L40.121 24.6806L40.0757 24.738V24.7389L40.0327 24.7933H40.0319L39.9912 24.8446L39.9528 24.8929H39.952L39.9168 24.9374L39.8838 24.9788L39.8539 25.0163L39.8263 25.0508L39.8018 25.0815L39.7804 25.1084L39.7619 25.1315L39.7467 25.1506L39.7344 25.1659L39.7259 25.1767L39.7206 25.1828H39.7198L39.7183 25.1851L40.7389 26.2058L41.7602 27.2271C41.7602 27.2271 44.8244 24.8003 46.5657 23.3264C47.4743 22.5573 48.8284 20.0998 47.7834 19.1613C47.7681 19.1452 47.7535 19.1299 47.7382 19.1138C47.7221 19.0985 47.7069 19.0839 47.6908 19.0702C47.6747 19.0556 47.6585 19.0426 47.6416 19.0295C47.6247 19.0164 47.6079 19.0043 47.5903 18.992C47.5727 18.9805 47.5551 18.9689 47.5374 18.9583C47.5189 18.9475 47.5013 18.9369 47.4821 18.9276C47.463 18.9176 47.4446 18.9085 47.4253 18.9L47.367 18.8763C47.3471 18.8678 47.3272 18.861 47.3064 18.8548L47.2443 18.8364L47.1814 18.8211L47.117 18.808C47.0956 18.8042 47.0734 18.8004 47.0511 18.7972H47.0503L46.9829 18.7896L46.9146 18.7849L46.8449 18.7826H46.7744L46.703 18.7856V18.7848L46.6301 18.7901L46.5565 18.7977L46.4822 18.8069L46.407 18.8183L46.3318 18.8321L46.2559 18.8474L46.1792 18.865L46.1025 18.8841L46.025 18.9055L45.9476 18.9285L45.8694 18.9531L45.7921 18.98L45.7139 19.0076L45.6365 19.0368L45.5591 19.0675L45.4818 19.0997L45.4044 19.1334L45.3277 19.1679L45.251 19.204L45.1751 19.2415L45.0999 19.2798L45.0256 19.319L44.9512 19.3589L44.8783 19.3995L44.8063 19.4409L44.7349 19.483L44.6643 19.526L44.5953 19.5697L44.527 19.6134L44.4603 19.6579L44.3944 19.7032L44.3308 19.7485L44.2679 19.7938L44.2065 19.8398L44.1467 19.8858L44.0884 19.9318L44.0325 19.9771L43.978 20.0231L43.9251 20.0691L43.8744 20.1144L43.8261 20.1597L43.7793 20.2042L43.7356 20.2487L43.6935 20.2924L43.6543 20.3354L43.6168 20.379L43.6154 20.384ZM47.7354 19.1188L47.6879 19.0751C47.704 19.0889 47.7193 19.1044 47.7354 19.1188Z" fill="#3FC1C9"/>
<path d="M39.655 24.8934L42.0536 27.292C42.108 27.3465 42.108 27.4361 42.0536 27.4906L41.2861 28.2581C41.2316 28.3125 41.142 28.3133 41.0875 28.2589L38.6883 25.8603C38.6338 25.8059 38.6338 25.7162 38.6883 25.6618L39.4558 24.8943C39.5102 24.8398 39.5999 24.8398 39.6543 24.8943L39.655 24.8934Z" fill="white"/>
<path d="M46.8818 21.8363C46.6096 22.2641 46.3059 22.6307 46.0421 22.8553C44.6589 24.033 42.4368 25.8235 41.6062 26.4899C41.5272 26.5534 41.4613 26.6064 41.4092 26.6477L41.8876 27.1262C41.9904 27.0448 42.1483 26.9192 42.347 26.7605C43.3238 25.9822 45.2929 24.4034 46.5613 23.33C46.9217 23.0248 47.3526 22.4536 47.6754 21.8171C48.1669 20.8494 48.4092 19.7306 47.7796 19.1648L47.7345 19.1173L47.687 19.0737L47.5866 18.9963L47.5336 18.9626L47.4783 18.9319L47.4499 18.9205C47.946 19.6074 47.4913 20.8764 46.8817 21.835V21.8363H46.8818Z" fill="#2AB5BD"/>
<path d="M51.3383 38.1052L48.242 35.0082L45.408 37.8422C44.9831 38.2671 44.9831 38.961 45.408 39.385L46.9622 40.9392C47.3862 41.3632 48.081 41.3632 48.505 40.9392L51.339 38.1052H51.3383Z" fill="#3FC1C9"/>
<path d="M39.0574 57.3001C39.6378 57.3001 40.1086 57.7709 40.1086 58.3513C40.1086 58.9317 39.6378 59.4033 39.0574 59.4033C38.4762 59.4033 38.0054 58.9325 38.0054 58.3513C38.0054 57.7707 38.4762 57.3001 39.0574 57.3001Z" fill="white"/>
<path d="M30.4489 47.3979C30.5655 47.3979 30.6591 47.4922 30.6591 47.6081C30.6591 47.7246 30.5648 47.8183 30.4489 47.8183C30.3324 47.8183 30.2388 47.724 30.2388 47.6081C30.2389 47.4914 30.3332 47.3979 30.4489 47.3979Z" fill="white"/>
<path d="M26.6633 48.4008C26.9938 48.4008 27.2621 48.6692 27.2621 48.9996C27.2621 49.33 26.9936 49.5984 26.6633 49.5984C26.3329 49.5984 26.0645 49.33 26.0645 48.9996C26.0645 48.6692 26.3327 48.4008 26.6633 48.4008Z" fill="white"/>
<path d="M16.6155 52.8988C17.2052 52.8988 17.6828 53.3766 17.6828 53.9661C17.6828 54.5558 17.2052 55.0342 16.6155 55.0342C16.0258 55.0342 15.5474 54.5565 15.5474 53.9661C15.5474 53.3764 16.0252 52.8988 16.6155 52.8988Z" fill="white"/>
<path d="M31.986 45.52C32.3081 45.52 32.5687 45.7806 32.5687 46.1027C32.5687 46.4239 32.3081 46.6854 31.986 46.6854C31.664 46.6854 31.4033 46.4248 31.4033 46.1027C31.4033 45.7808 31.664 45.52 31.986 45.52Z" fill="white"/>
<path d="M34.7045 64.0952C35.134 64.0952 35.4813 64.4433 35.4813 64.872C35.4813 65.3014 35.134 65.6487 34.7045 65.6487C34.2759 65.6487 33.9277 65.3014 33.9277 64.872C33.9277 64.4433 34.2759 64.0952 34.7045 64.0952Z" fill="white"/>
<path d="M39.3802 54.6462C39.6033 54.6462 39.7851 54.8272 39.7851 55.0503C39.7851 55.2734 39.6041 55.4552 39.3802 55.4552C39.157 55.4552 38.9761 55.2743 38.9761 55.0503C38.9761 54.8272 39.157 54.6462 39.3802 54.6462Z" fill="white"/>
<path d="M36.5271 80.7121C36.0577 80.3701 35.5333 80.1355 34.9896 80.0105C35.5034 78.6679 35.2197 77.0898 34.1378 76.0071C33.0873 74.9559 31.5676 74.6575 30.2509 75.1123C30.9173 73.824 30.7109 72.2009 29.6305 71.1204C29.3468 70.8376 29.0271 70.6151 28.6859 70.4517C29.7104 69.402 29.8659 67.8209 29.1521 66.6094C29.6428 66.4682 30.106 66.2044 30.4925 65.818C31.2976 65.0128 31.5706 63.8764 31.3106 62.8466C31.9286 62.8036 32.5344 62.5468 33.0059 62.0745C33.4085 61.6719 33.6545 61.1727 33.745 60.6514C34.0809 60.5563 34.3983 60.3762 34.6636 60.1116C35.2117 59.5634 35.3967 58.7904 35.2202 58.0895C35.6404 58.0603 35.9525 57.9844 36.3735 57.5642C36.7945 57.1432 37.3219 56.0897 36.6541 55.2816L47.402 41.3814L46.1836 40.163L44.9652 38.9446L30.7093 49.5637C30.0628 49.316 29.3038 49.4525 28.7823 49.9731C28.4611 50.2943 28.2863 50.7062 28.2571 51.1264C27.5562 50.9492 26.7834 51.1349 26.2359 51.683C25.9706 51.9475 25.7911 52.2651 25.6953 52.6016C25.1739 52.6921 24.6747 52.9383 24.2722 53.3408C23.7999 53.8132 23.5431 54.4181 23.5001 55.0362C22.4703 54.777 21.334 55.0493 20.5288 55.8551C20.1294 56.2539 19.8609 56.7347 19.7236 57.2438C18.5328 56.6205 17.0299 56.8006 16.0194 57.7867C15.856 57.4447 15.6337 57.125 15.3507 56.8421C14.2702 55.7617 12.6469 55.5555 11.358 56.2217C11.8127 54.9052 11.5152 53.3862 10.464 52.3348C9.38129 51.2521 7.80332 50.9683 6.4606 51.483C6.33493 50.9393 6.10101 50.4157 5.75903 49.9455C6.41926 49.6817 7.03717 49.2823 7.57173 48.7477C9.68426 46.6352 9.68426 43.21 7.57173 41.0976C5.49457 39.0205 2.14822 38.9859 0.0282224 40.9934C0.0107909 41.4944 0 41.9958 0 42.5005C0 65.9724 19.0277 85.0001 42.4996 85.0001C43.8629 85.0001 45.2118 84.9348 46.542 84.8091C48.7948 79.4041 41.9061 74.7175 37.724 78.9004C37.1896 79.4348 36.79 80.0528 36.5262 80.7137L36.5271 80.7121Z" fill="white"/>
<path d="M36.5273 80.712C36.0579 80.37 35.5335 80.1354 34.9898 80.0104C35.5036 78.6679 35.2199 77.0897 34.138 76.007C33.0875 74.9558 31.5678 74.6575 30.2511 75.1122C30.9175 73.8239 30.7111 72.2008 29.6307 71.1204C29.347 70.8375 29.0272 70.615 28.6861 70.4517C29.7106 69.402 29.8661 67.8208 29.1523 66.6093C29.643 66.4682 30.1062 66.2044 30.4926 65.8179C31.2978 65.0127 31.5707 63.8764 31.3108 62.8466C31.9288 62.8036 32.5346 62.5467 33.0061 62.0744C33.4087 61.6719 33.6547 61.1726 33.7452 60.6514C34.081 60.5562 34.3985 60.3761 34.6638 60.1115C35.2119 59.5633 35.3969 58.7903 35.2204 58.0894C36.6113 57.9936 37.484 56.3297 36.6543 55.2815L47.4022 41.3813L36.0822 55.188C36.7056 56.3865 35.9764 57.5904 34.6015 57.7122C35.2717 58.8478 34.2466 60.2757 33.0886 60.1307C33.5119 61.5707 32.1393 62.3721 30.9371 62.2662C31.1104 64.1348 30.4402 65.8639 28.527 66.3355C29.6719 67.823 28.9925 69.5768 27.9443 70.3642C30.4057 71.7512 30.4364 73.9121 29.303 75.6711C32.1408 74.9641 35.1497 76.3106 34.4159 80.1698C34.4159 80.1698 35.9678 80.3683 36.7461 81.5615C36.7461 81.5615 39.5739 76.3918 43.6509 78.4952C46.692 80.064 46.1982 83.3214 45.7503 84.8748C46.0148 84.8549 46.2779 84.8326 46.5409 84.8074C48.7937 79.4023 41.905 74.7157 37.7229 78.8986C37.1885 79.433 36.7889 80.0511 36.5251 80.712H36.5273Z" fill="#DFE1E3"/>
<path d="M11.3221 59.572C13.6531 59.572 15.6031 61.2052 16.09 63.389C16.3875 63.3055 16.7011 63.2601 17.0255 63.2601C18.3765 63.2601 19.5459 64.0354 20.114 65.1656C20.6247 64.8061 21.2481 64.5944 21.9198 64.5944C23.6543 64.5944 25.0604 66.0007 25.0604 67.735C25.0604 68.3461 24.8856 68.9159 24.5843 69.3982C25.1164 70.1305 25.4316 71.0322 25.4316 72.0068C25.4316 72.8049 25.2208 73.5542 24.8519 74.2013C26.525 74.271 27.8599 75.6489 27.8599 77.339C27.8599 77.9655 27.6766 78.5489 27.3601 79.0389C27.4436 79.0275 27.5281 79.0213 27.6146 79.0213C28.4909 79.0213 29.2279 79.6163 29.444 80.4245C30.2522 80.6406 30.8472 81.3776 30.8472 82.254C30.8472 82.6366 30.7336 82.9916 30.5389 83.2899C20.4589 80.3385 11.9322 73.7534 6.472 65.0489C6.46669 65.0044 6.46121 64.9608 6.4574 64.9155L6.3968 64.9286C4.3955 61.715 2.81289 58.2146 1.72168 54.5042C1.87275 54.4805 2.02681 54.4682 2.18403 54.4682C3.81263 54.4682 5.13227 55.7878 5.13227 57.4164C5.13227 57.6709 5.10006 57.9186 5.03947 58.154C5.25031 58.1142 5.46812 58.092 5.69041 58.092C7.12959 58.092 8.36257 58.9722 8.88253 60.2236C9.60021 59.8095 10.4329 59.5726 11.3209 59.5726L11.3221 59.572Z" fill="#ECF0F1"/>
<path d="M25.0766 81.2718C17.3882 77.8113 10.9149 72.1318 6.47223 65.0491C6.46692 65.0046 6.46144 64.9609 6.45762 64.9156L6.39703 64.9287C5.99146 64.277 5.60265 63.6137 5.23145 62.9382C5.60481 63.2779 5.90314 63.6981 6.1002 64.172C6.81787 63.7572 7.6506 63.5203 8.53861 63.5203C10.8696 63.5203 12.8196 65.1535 13.3065 67.3373C13.604 67.2538 13.9185 67.2084 14.2429 67.2084C15.5932 67.2084 16.7633 67.9837 17.3307 69.1139C17.8414 68.7544 18.4648 68.5427 19.1373 68.5427C20.871 68.5427 22.2773 69.949 22.2773 71.6833C22.2773 72.2944 22.1033 72.8642 21.8011 73.3465C22.3332 74.0788 22.6476 74.9806 22.6476 75.9551C22.6476 76.7532 22.4368 77.5025 22.0679 78.1496C23.7357 78.2187 25.0676 79.5888 25.0759 81.272H25.0766V81.2718Z" fill="white"/>
<path d="M40.292 41.0397L43.3661 38.2241L44.0132 38.9365L40.292 41.0397Z" fill="white"/>
<path d="M45.1385 46.0751L47.6136 42.6123L48.3129 43.261L45.1377 46.0751H45.1385Z" fill="white"/>
<path d="M46.9116 45.8574L48.6339 43.5509L49.1468 43.9911L46.9125 45.8574H46.9116Z" fill="white"/>
<path d="M40.3862 39.6134L42.7149 37.4733L43.0016 37.869L40.3869 39.6134H40.3862Z" fill="white"/>
</g>
<defs>
<clipPath id="clip0">
<rect width="85" height="85" fill="white"/>
</clipPath>
</defs>
</svg>
