<svg width="85" height="85" viewBox="0 0 85 85" fill="none" xmlns="http://www.w3.org/2000/svg">
<g clip-path="url(#clip0)">
<path d="M42.5006 0C65.9733 0 85.0006 19.0277 85.0006 42.5C85.0006 65.9723 65.9733 85 42.5006 85C19.0287 85 0.000976562 65.9723 0.000976562 42.5C0.000976562 19.0277 19.0287 0 42.5006 0Z" fill="#FC5185"/>
<path d="M27.2925 39.4504C29.4807 35.7725 32.929 31.5034 29.4273 25.0127C24.272 2.47325 48.029 -2.09666 51.6209 7.20536C57.4662 9.40922 57.3103 21.5423 54.3044 27.8912C54.1704 30.5037 51.4541 32.7822 56.363 39.5228L56.7163 39.4456L56.7159 39.4459C50.3476 41.2917 34.0247 40.442 27.2925 39.4504Z" fill="#666666"/>
<path d="M38.2132 34.7001C37.9944 38.7368 36.5617 40.2606 34.5752 41.3218C33.5645 42.2146 25.959 42.454 23.735 46.0441C23.2712 46.793 23.0338 54.6734 21.7515 58.3188C31.0477 64.4071 53.9522 64.4071 63.2486 58.3188C61.9659 54.6734 62.0758 46.7937 61.612 46.0448C59.2642 42.253 51.2714 42.209 50.3417 41.4342C48.3988 40.3466 47.0031 38.7474 46.7868 34.7001C46.7868 34.7001 43.883 36.9528 42.0778 36.6061C40.2718 36.2598 38.2132 34.7001 38.2132 34.7001Z" fill="#FED198"/>
<path d="M38.1162 35.8019C39.1744 36.4314 40.9391 38.4019 42.5907 38.4243C44.2364 38.4465 46.5541 36.0132 46.885 35.8338C46.8564 35.6043 46.8327 35.3653 46.8136 35.1168L46.7865 35.138L46.7851 35.1392L46.7839 35.1395C46.6952 35.2091 43.8545 37.4284 42.077 37.0806C40.3259 36.7379 38.3368 35.2328 38.2186 35.142L38.1849 35.1164C38.1667 35.3535 38.1433 35.5823 38.1162 35.8019Z" fill="#F0B97D"/>
<path d="M33.5345 28.0799C35.3258 31.916 35.9884 33.4138 38.2132 35.1382C38.2132 35.1382 40.2718 36.7275 42.0775 37.0811C43.8828 37.4338 46.7865 35.1382 46.7865 35.1382C49.0117 33.4138 49.6736 31.916 51.4649 28.0799C51.9041 28.3138 52.3632 28.631 52.7193 28.2223C53.0759 27.8134 54.7724 22.5066 54.4671 21.7907C54.1618 21.0743 53.8638 21.5312 53.4092 21.8554C53.433 21.701 53.0498 23.7731 53.0553 23.4583C53.0981 20.9531 51.3375 20.5552 50.7855 13.927C42.6664 21.9824 35.0818 18.2854 32.4393 18.8253C31.674 18.9812 31.4488 20.9422 31.5901 21.8558C28.724 19.8103 32.2069 28.1391 32.2798 28.2223C32.6367 28.6312 33.0952 28.3138 33.5342 28.0799H33.5345Z" fill="#FED198"/>
<path d="M34.5739 41.3203C31.8451 42.7782 26.8483 41.0165 23.7347 46.0439C23.272 46.7921 21.4968 54.6732 20.2139 58.3186C29.5097 65.4863 55.489 65.5282 64.7856 58.3186C63.5029 54.6732 62.075 46.7925 61.6117 46.0442C58.4908 41.0028 53.1346 42.7759 50.4021 41.3091L42.7845 56.8804L34.5736 41.3201H34.5739V41.3203Z" fill="#364F6B"/>
<path d="M38.1689 48.122C40.539 48.9668 44.571 48.972 47.0717 48.1186L42.785 56.8813L38.1689 48.122Z" fill="white"/>
<path d="M18.6479 46.8128C33.3568 44.89 39.211 48.5807 42.5001 51.4868C37.6116 48.6723 28.2285 48.8583 19.0612 50.4963L18.6479 46.8128Z" fill="white"/>
<path d="M66.3521 46.8126C51.6433 44.8898 45.7896 48.5802 42.5 51.4861C48.3328 48.1278 59.2935 49.3327 65.9308 50.5479L66.3521 46.8126Z" fill="white"/>
<path d="M15.021 51.0755C25.3935 48.7119 37.0174 47.9657 42.6579 51.2131C48.2987 47.9657 59.6063 48.7119 69.9791 51.0755C69.3851 71.4815 69.8807 54.4499 69.0893 81.6861C68.4817 81.5716 52.0883 79.1333 44.1639 81.5112C42.8444 81.5105 42.5386 81.5105 41.2136 81.5112C32.5136 78.9808 16.4811 81.5789 15.9102 81.6861C15.093 53.5646 15.6341 72.2171 15.021 51.0755Z" fill="#3FC1C9"/>
<path d="M16.3306 49.2508L16.4883 50.8723C26.5082 48.7453 37.3931 48.1933 42.7936 51.3028L42.794 51.3025C42.7749 51.2879 34.7744 45.2723 16.3309 49.2505L16.3306 49.2508Z" fill="#DFE1E3"/>
<path d="M68.6694 49.3409L68.5117 50.9624C58.4919 48.8354 47.6065 48.2834 42.2064 51.3928L42.2061 51.3925C42.2251 51.3782 50.2256 45.3623 68.6696 49.3406V49.3409H68.6694Z" fill="#DFE1E3"/>
<path d="M20.6613 59.3938L17.7721 59.5482L14.8965 59.7517C13.7062 59.8367 13.9049 61.9685 15.0909 61.8279L18.2257 61.4567L20.606 61.2565C21.7963 61.1559 21.4606 59.3506 20.6613 59.3938ZM20.264 66.0258L15.7829 66.5496C14.8217 66.6611 15.0534 68.8026 15.9773 68.6254L20.4718 67.7608C21.4112 67.5799 21.2124 65.9147 20.264 66.0258ZM20.8336 63.7011C22.0224 63.5898 22.2651 65.4266 21.0803 65.578L15.407 66.3029C14.2225 66.4544 14.0241 64.3384 15.2126 64.227L20.8336 63.7011ZM21.6257 61.3807C23.0177 61.2503 23.2121 63.3262 21.8201 63.4565L15.2269 64.0741C13.8352 64.2044 13.6413 62.1286 15.0325 61.9983L21.6257 61.3807Z" fill="#FED198"/>
<path d="M20.287 59.8655L20.3884 60.9505L21.1117 60.8824C21.2336 60.4761 21.1819 60.0925 21.003 59.7221L20.2866 59.8652L20.287 59.8655Z" fill="white"/>
<path d="M21.5298 61.8825L21.6447 63.1147L22.3204 63.0514C22.5594 62.5858 22.5488 62.1437 22.197 61.7338L21.5293 61.8823L21.5298 61.8825Z" fill="white"/>
<path d="M20.6279 64.1856L20.7294 65.2702L21.5578 65.1927C21.6438 64.7947 21.6109 64.4079 21.449 64.0327L20.6279 64.1856Z" fill="white"/>
<path d="M19.9487 66.5827L20.0805 67.441L20.9111 67.2986C20.9865 66.9717 20.943 66.6649 20.7702 66.3802L19.9487 66.5822V66.5827Z" fill="white"/>
<path d="M64.3389 59.3938L67.2281 59.5482L70.1036 59.7517C71.294 59.8367 71.0952 61.9685 69.9092 61.8279L66.7745 61.4567L64.3942 61.2565C63.2037 61.1559 63.5394 59.3506 64.3389 59.3938ZM64.736 66.0258L69.2171 66.5496C70.1783 66.6611 69.9466 68.8026 69.0227 68.6254L64.5281 67.7608C63.5892 67.5799 63.7875 65.9147 64.736 66.0258ZM64.1664 63.7011C62.9776 63.5898 62.7348 65.4266 63.9197 65.578L69.593 66.3029C70.7775 66.4544 70.9759 64.3384 69.7874 64.227L64.1664 63.7011ZM63.3743 61.3807C61.9823 61.2503 61.7879 63.3262 63.1799 63.4565L69.7731 64.0741C71.1648 64.2044 71.3587 62.1286 69.9675 61.9983L63.3743 61.3807Z" fill="#FED198"/>
<path d="M64.7132 59.8655L64.6118 60.9505L63.8881 60.8824C63.7663 60.4761 63.8179 60.0925 63.9969 59.7221L64.7132 59.8652V59.8655Z" fill="white"/>
<path d="M63.4699 61.8825L63.355 63.1147L62.6794 63.0514C62.4403 62.5858 62.4509 62.1437 62.8027 61.7338L63.4704 61.8823L63.4699 61.8825Z" fill="white"/>
<path d="M64.3721 64.1856L64.2706 65.2702L63.4422 65.1927C63.3562 64.7947 63.3891 64.4079 63.5509 64.0327L64.3721 64.1856Z" fill="white"/>
<path d="M65.0511 66.5827L64.9193 67.441L64.0887 67.2986C64.0134 66.9717 64.0569 66.6649 64.2297 66.3802L65.0511 66.5822V66.5827Z" fill="white"/>
<path d="M41.2466 50.5338H44.164V81.5105H41.2466V50.5338Z" fill="#FFBA1B"/>
</g>
<defs>
<clipPath id="clip0">
<rect width="85" height="85" fill="white"/>
</clipPath>
</defs>
</svg>
