<svg width="85" height="85" viewBox="0 0 85 85" fill="none" xmlns="http://www.w3.org/2000/svg">
<g clip-path="url(#clip0)">
<path d="M42.5 85C65.9085 85 85 65.9077 85 42.5C85 19.0923 65.9085 0 42.5 0C19.0915 0 0 19.0923 0 42.5C0 65.9085 19.0923 85 42.5 85Z" fill="#FC5185"/>
<path d="M14.1096 20.2954L38.2388 31.2489L60.9519 20.9387L36.8227 9.98517L14.1105 20.2961L14.1096 20.2954Z" fill="#666666"/>
<path d="M20.8367 58.3917C23.2084 54.4043 26.9464 49.7768 23.1508 42.7407C17.5625 18.3079 43.3152 13.3536 47.2096 23.4376C53.5456 25.8269 53.3769 38.9788 50.118 45.8615C49.9731 48.6932 47.0278 51.1631 52.3494 58.4706L52.7328 58.3871H52.7319C45.8293 60.3876 28.1341 59.4667 20.8367 58.3924V58.3917Z" fill="#666666"/>
<path d="M32.6753 53.2419C32.4376 57.6172 30.8848 59.2696 28.7318 60.4197C27.6361 61.3874 19.3916 61.6466 16.9807 65.5397C16.6594 66.0588 16.4378 71.0935 15.957 75.6903C23.23 81.515 32.4575 85 42.5001 85C49.1505 85 55.4435 83.471 61.0487 80.7482C59.782 75.9374 58.4922 66.2705 58.0398 65.5405C55.4956 61.4304 46.8301 61.383 45.8226 60.5426C43.7162 59.364 42.2033 57.6303 41.9687 53.2427C41.9687 53.2427 38.821 55.6841 36.8642 55.3085C34.9066 54.9328 32.6753 53.2427 32.6753 53.2427V53.2419Z" fill="#F0B97D"/>
<path d="M27.6029 46.0655C29.5451 50.2239 30.2629 51.8479 32.6751 53.7165C32.6751 53.7165 34.9066 55.4388 36.864 55.8221C38.8209 56.2048 41.9685 53.7165 41.9685 53.7165C44.3801 51.8479 45.0986 50.2237 47.0401 46.0655C47.5163 46.3185 48.0132 46.6629 48.4005 46.2196C48.787 45.7763 50.6257 40.0239 50.2952 39.2473C49.964 38.4713 49.6411 38.9659 49.148 39.3178C49.1733 39.1507 48.7586 41.3965 48.7639 41.0554C48.8107 38.3393 46.9022 37.9085 46.304 30.7229C37.502 39.4551 29.2806 35.4478 26.4167 36.0329C25.5869 36.2024 25.3432 38.3279 25.4958 39.3178C22.3895 37.101 26.1645 46.1293 26.2434 46.2198C26.6305 46.6629 27.1274 46.3185 27.6029 46.0655Z" fill="#FED198"/>
<path d="M28.73 60.4183C25.7718 61.9986 20.3559 60.0894 16.9806 65.5397C16.7007 65.9921 15.3075 69.8866 13.8889 73.9268C21.4401 80.8056 31.4806 85 42.5001 85C49.8682 85 56.7983 83.1244 62.8391 79.8258C61.1713 74.801 58.4646 66.2253 58.0398 65.5405C54.6567 60.0756 48.8506 61.9979 45.8893 60.4076L37.631 77.2869L28.73 60.4191V60.4183Z" fill="#364F6B"/>
<path d="M24.1537 21.414C30.3717 17.2465 45.5103 17.4252 51.0572 21.6372L51.63 28.6095C41.9501 26.0814 33.4111 26.2102 23.5149 28.7667L24.1536 21.4132V21.414H24.1537Z" fill="#807D7D"/>
<path d="M32.627 67.791C35.1957 68.7072 39.5664 68.7127 42.2769 67.788L37.6302 77.2869L32.627 67.791Z" fill="#3FC1C9"/>
<path d="M19.5272 17.9291L19.5663 29.8096V30.1777H18.8601V29.8096V18.1545C18.8838 17.4737 19.4805 17.38 19.528 17.9291H19.5272Z" fill="white"/>
<path d="M17.9128 31.9781C17.9128 35.1886 17.2396 37.9513 17.202 38.1361C17.1651 38.3202 17.8131 38.9258 17.9381 38.3202C18.0631 37.7146 17.9258 38.3333 18.5002 38.3723C19.0653 38.4115 19.1827 38.1316 19.1865 38.1223C19.1903 38.1314 19.3077 38.4113 19.8728 38.3723C20.4464 38.3331 20.3091 37.7144 20.4341 38.3202C20.5591 38.9252 21.2077 38.3202 21.1702 38.1361C21.1327 37.952 20.4593 35.1885 20.4593 31.9781C20.4295 30.7489 19.9478 30.1692 19.1865 29.992C18.4252 30.1692 17.9435 30.7489 17.9137 31.9781H17.9128Z" fill="#FFBA1B"/>
<path d="M19.1858 29.9922C20.4478 29.9922 20.4847 30.7936 20.4203 31.5358C20.1427 31.2943 19.6926 31.1379 19.1858 31.1379C18.6781 31.1379 18.2289 31.2943 17.9513 31.5358C17.9068 30.6739 17.9244 29.9922 19.1858 29.9922Z" fill="#807D7D"/>
<path d="M63.336 41.8675H80.9851L84.9901 59.5465L83.5232 59.5541L83.488 65.7958L85 65.8035L84.9901 66.847H61.1323C58.8741 66.6714 59.0757 62.6581 58.9553 61.5838L60.9651 43.6127C60.9727 42.8136 61.804 41.8682 63.336 41.8682V41.8675Z" fill="#FFCA4F"/>
<path d="M63.3359 41.8675H65.0259L63.4878 66.8463H61.1322C58.3649 66.5327 58.2598 62.1313 59.1584 59.7666L60.965 43.6111C60.9726 42.8121 61.8039 41.8666 63.3367 41.8666L63.3359 41.8675Z" fill="#364F6B"/>
<path d="M61.4389 59.5441H84.533C83.4848 61.6851 83.5123 63.7968 84.533 65.8801H61.4389C58.9614 65.8801 58.9621 59.5441 61.4389 59.5441Z" fill="white"/>
<path d="M59.7595 61.2863H83.915C83.9012 61.3492 83.8881 61.4128 83.8751 61.4764H59.7136C59.7282 61.412 59.7434 61.3484 59.7595 61.2863ZM83.8014 61.9527C83.7938 62.0156 83.7877 62.0792 83.7815 62.1428H59.6076C59.6138 62.0792 59.6214 62.0154 59.6299 61.9527H83.8014ZM83.7578 62.6189C83.7563 62.6825 83.7563 62.7454 83.7578 62.809H59.5824C59.5816 62.7454 59.5816 62.6825 59.5824 62.6189H83.7578ZM83.7822 63.2853C83.7875 63.3489 83.7945 63.4118 83.8013 63.4754H59.6299C59.6214 63.4118 59.6146 63.3489 59.6085 63.2853H83.7822ZM83.8758 63.9517C83.8881 64.0153 83.901 64.0782 83.915 64.1418H59.7604C59.7434 64.0789 59.7282 64.0161 59.7144 63.9517H83.8758ZM84.0375 64.6179C84.0559 64.6815 84.0759 64.7444 84.0966 64.808H60.0049C59.975 64.7466 59.9466 64.683 59.9206 64.6179H84.0375ZM84.2684 65.2843C84.2937 65.3479 84.3197 65.4116 84.3475 65.4744H60.4711C60.4105 65.4161 60.3537 65.3525 60.2993 65.2843H84.2691H84.2684Z" fill="#ECF0F1"/>
<path d="M68.4636 62.7908H72.0721V70.7969L70.2525 68.1851L68.4629 70.7969V62.7908H68.4636Z" fill="#3FC1C9"/>
<path d="M57.3112 53.0694L81.7762 44.318C84.5168 44.0902 85.3372 49.6655 83.5406 50.1916L59.6377 59.1623C58.2805 59.6738 56.9532 57.4907 56.8344 55.3514C56.7723 54.2142 57.0812 54.2487 58.3757 53.7419L57.3113 53.0702V53.0694H57.3112Z" fill="white"/>
<path d="M84.3098 49.3574C84.1541 49.7791 83.8996 50.0859 83.5406 50.191L59.6377 59.1615C59.2222 59.3187 58.8088 59.2221 58.4331 58.9521C59.1118 59.0195 59.482 58.9299 60.1276 58.3211L84.3106 49.3574H84.3098Z" fill="#ECF0F1"/>
<path d="M73.3678 47.3284C75.1852 47.5899 76.4824 51.9046 75.5753 53.1813L72.2713 54.4213C72.8709 52.3977 71.565 49.0261 69.75 48.6235L73.3678 47.3284Z" fill="#FF757C"/>
<path d="M79.2199 56.0583L75.5746 53.1806L72.2705 54.4206L75.0294 57.6265L76.3037 55.7218L79.2199 56.0583Z" fill="#FF757C"/>
<path d="M58.2161 53.8078L58.3757 53.7411C59.3748 53.9428 61.1262 57.5236 59.2069 58.318C57.8413 58.8831 57.2056 55.921 57.2554 54.9387C57.8404 54.5194 58.4723 56.2891 58.2699 56.3289L57.8643 56.4086C57.8643 56.4086 57.8766 57.1831 58.2699 57.2367L59.8379 56.729C59.8379 56.729 59.7106 54.4463 58.2161 53.8068V53.8078Z" fill="#ECF0F1"/>
<path d="M63.8552 60.8723H82.4551H83.5156H84.0186C84.1436 60.4322 84.3138 59.9912 84.5301 59.5488C84.531 59.5473 84.5316 59.5458 84.5325 59.5441H82.8816H63.9364H61.4382C59.1462 59.5441 58.9745 64.9699 60.9252 65.7789C60.265 63.911 60.7917 60.8721 62.5078 60.8721H63.8544H63.8552V60.8723Z" fill="#ECF0F1"/>
</g>
<defs>
<clipPath id="clip0">
<rect width="85" height="85" fill="white"/>
</clipPath>
</defs>
</svg>
