<svg width="85" height="85" fill="none" xmlns="http://www.w3.org/2000/svg"><g clip-path="url(#clip0)"><path d="M42.5 0C65.972 0 85 19.028 85 42.5S65.972 85 42.5 85C19.027 85 0 65.972 0 42.5S19.028 0 42.5 0z" fill="#3FC1C9"/><path d="M22.217 39.12h41.455l9.407 28.038-3.445.012-.083 9.899 3.55.013-.022 1.653H17.04c-5.303-.277-4.83-6.643-5.114-8.347l4.722-28.502c.018-1.266 1.97-2.766 5.569-2.766z" fill="#fff"/><path d="M22.217 39.12h3.97l-3.613 39.615H17.04c-5.304-.277-5.22-6.128-5.114-8.347l4.721-28.502c.018-1.266 1.97-2.766 5.569-2.766z" fill="#FBB429"/><path d="M17.763 67.155h54.242c-2.462 3.395-2.398 6.744 0 10.049H17.763c-2.91 0-4.319-2.26-4.319-5.025 0-2.763 1.41-5.024 4.319-5.024z" fill="#ECF0F1"/><path d="M34.262 72.304h8.477V85l-4.274-4.142L34.262 85V72.304z" fill="#FC5185"/><path d="M46.532 9.599c-3.56 1.373-5.193 7.295-4.362 10.906l1.086-.136c-.624-4.303 2.055-7.983 5.38-9.817L46.532 9.6z" fill="#EC4B53"/><path d="M42.808 15.465c-.702-6.417-8.22-8.392-12.787-8.103 2.108 4.15 6.048 11.532 12.787 8.103z" fill="#E1A020"/><path d="M30.021 7.362c2.108 4.15 6.048 11.532 12.787 8.103-6.896-7.14-12.787-8.103-12.787-8.103z" fill="#FBB429"/><path d="M42.515 51.251c-10.144 4.405-13.99-5.343-17.53-13.583-5.724-13.327 2.652-23.323 17.53-17.64 14.878-5.683 23.254 4.313 17.529 17.64-3.54 8.24-7.386 17.988-17.53 13.583z" fill="#FC5185"/><path d="M42.514 51.251c-4.913 2.134-8.349.947-10.988-1.78 2.867 2.333 6.61 3.113 11.26 1.083 8.63 3.728 12.37-3.524 15.454-10.592 2.371-5.437 5.14-11.086.533-18.48 3.436 3.42 4.2 9.367 1.27 16.185-3.54 8.241-7.385 17.99-17.528 13.584z" fill="#EC4B53"/></g><defs><clipPath id="clip0"><path fill="#fff" d="M0 0h85v85H0z"/></clipPath></defs></svg>