<svg width="85" height="85" fill="none" xmlns="http://www.w3.org/2000/svg"><g clip-path="url(#clip0)"><path d="M42.5 0C65.974 0 85 19.028 85 42.5S65.974 85 42.5 85C19.03 85 .002 65.972.002 42.5.001 19.027 19.029 0 42.501 0z" fill="#3FC1C9"/><path d="M19.666 33.231h11.34v30.665c0 3.118-2.551 5.67-5.67 5.67-3.119 0-5.67-2.551-5.67-5.67V33.231z" fill="#fff"/><path d="M21.381 46.545v17.351a3.971 3.971 0 003.955 3.955 3.97 3.97 0 003.955-3.955V46.545h-7.91z" fill="#364F6B"/><path d="M19.097 31.808h12.478c.784 0 1.424.64 1.424 1.423 0 .784-.64 1.424-1.424 1.424H19.097c-.783 0-1.424-.64-1.424-1.423 0-.784.64-1.424 1.424-1.424z" fill="#fff"/><path d="M33 33.231c0 .784-.641 1.424-1.425 1.424H19.097c-.783 0-1.424-.64-1.424-1.423H33z" fill="#ECF0F1"/><path d="M48.685 15.802v23.705l16.822 31.074c2.52 4.653-.49 7.414-5.748 7.414h-34.88c-5.259 0-8.27-2.757-5.749-7.415l16.823-31.073V15.802h12.732zM82.4 22.017V51.12H62.968V22.017H82.4z" fill="#fff"/><path d="M71.854 22.017V6.248h-8.318a.588.588 0 01-.587-.587V2.003h-2.243v9.975a.587.587 0 01-.587.587h-3.521a.588.588 0 01-.587-.587V6.766H42.906v9.036h-1.174V6.179c0-.324.263-.587.587-.587h14.279c.324 0 .587.263.587.587v5.212h2.347V1.416c0-.324.263-.587.587-.587h3.417c.324 0 .588.263.588.587v3.658h8.318c.324 0 .587.263.587.587v16.356h-1.175z" fill="#FC5185"/><path d="M73.028 25.864a.588.588 0 01-1.175 0v-3.846h1.175v3.846zM42.906 15.802v8.137a.588.588 0 01-1.175 0v-8.137h1.175z" fill="#C8CACC"/><path d="M34.403 48.324L21.36 71.671c-.314.641-.836 1.936-.417 2.644.603 1.018 2.922 1.198 3.935 1.198h34.88c1.014 0 3.332-.18 3.936-1.2.418-.707-.102-2-.416-2.642L50.235 48.324c-6.52-1.45-9.312 2.071-15.832 0z" fill="#FC5185"/><path d="M62.968 19.721h-1.17v2.296H83.57v-2.296H62.968z" fill="#fff"/><path d="M64.999 29.701c10.776-1.854 10.599 2.385 15.369 0v19.785H64.999V29.702z" fill="#FBB429"/><path d="M64.999 22.812h1.974v.662H65v-.662zm0 26.09h.987v.663H65v-.662zm0-1.534h1.974v.663H65v-.663zm0-1.535h.987v.663H65v-.663zm0-1.535h1.974v.663H65v-.663zm0-1.535h.987v.663H65v-.663zm0-1.534h1.974v.662H65v-.662zm0-1.535h.987v.663H65v-.663zm0-1.534h1.974v.662H65v-.662zm0-1.536h.987v.663H65v-.663zm0-1.534h1.974v.662H65v-.662zm0-1.535h.987v.663H65v-.663zm0-1.534h1.974v.662H65v-.662zm0-1.535h.987v.663H65v-.663zm0-1.535h1.974v.663H65v-.663zm0-1.535h.987v.663H65v-.663zm0-1.535h1.974v.663H65v-.663zm0-1.534h.987v.662H65v-.662zm-43.618 13.22h1.974v.662h-1.974v-.662zm0 26.09h.987v.663h-.987v-.663zm0-1.534h1.974v.662h-1.974v-.662zm0-1.535h.987v.662h-.987v-.662zm0-1.535h1.974v.663h-1.974v-.663zm0-1.534h.987v.662h-.987v-.662zm0-1.535h1.974v.663h-1.974v-.663zm0-1.535h.987v.663h-.987v-.663zm0-1.535h1.974v.663h-1.974v-.663zm0-1.535h.987v.663h-.987v-.663zm0-1.534h1.974v.662h-1.974v-.662zm0-1.535h.987v.662h-.987v-.662zm0-1.535h1.974v.663h-1.974v-.663zm0-1.534h.987v.662h-.987v-.662zm0-1.535h1.974v.662h-1.974v-.662zm0-1.535h.987v.663h-.987v-.663zm0-1.535h1.974v.663h-1.974v-.663zm0-1.534h.987v.662h-.987v-.662z" fill="#666"/><path d="M18.294 17.307a2.123 2.123 0 110 4.246 2.123 2.123 0 010-4.246z" fill="#364F6B"/><path d="M21.976 25.267a1.372 1.372 0 110 2.744 1.372 1.372 0 010-2.744z" fill="#FC5185"/><path d="M21.457 11.156a1.501 1.501 0 110 3.003 1.501 1.501 0 010-3.003zm4.645 16.303a.932.932 0 110 1.864.932.932 0 010-1.864z" fill="#fff"/><path d="M26.427 19.692a1.769 1.769 0 110 3.537 1.769 1.769 0 010-3.537z" fill="#FBB429"/><path d="M39.315 57.184a1.891 1.891 0 110 3.782 1.891 1.891 0 010-3.782zm-8.435 8.779a1.372 1.372 0 110 2.744 1.372 1.372 0 010-2.744zm20.83-7.637a1.387 1.387 0 110 2.774 1.387 1.387 0 010-2.774zm-8.325-7.868a1.01 1.01 0 110 2.021 1.01 1.01 0 010-2.02zm11.722 18.97a1.216 1.216 0 110 2.432 1.216 1.216 0 010-2.432zM35.68 72.41a.793.793 0 110 1.585.793.793 0 010-1.586zm9.71-7.134a2.06 2.06 0 110 4.119 2.06 2.06 0 010-4.12z" fill="#fff"/><path d="M42.165 26.398a.861.861 0 110 1.722.861.861 0 010-1.722z" fill="#3FC1C9"/><path d="M41.431 31.334a1.673 1.673 0 110 3.346 1.673 1.673 0 010-3.346z" fill="#FC5185"/><path d="M35.953 12.472h-2.678c-2.19 0-2.19 3.33 0 3.33h18.087c2.19 0 2.19-3.33 0-3.33H35.953z" fill="#fff"/><path d="M35.953 15.802h-2.678a1.67 1.67 0 01-1.663-1.664v-.001h21.414v.001c0 .912-.752 1.664-1.664 1.664H35.953zm27.015 6.215h-1.17V20.87H83.57v1.148H62.968z" fill="#ECF0F1"/><path d="M44.678 37.46a1.062 1.062 0 110 2.123 1.062 1.062 0 010-2.124z" fill="#FBB429"/><path d="M40.69 41.36a2.312 2.312 0 110 4.626 2.312 2.312 0 010-4.625z" fill="#ECF0F1"/><path d="M46.075 44.294a.531.531 0 110 1.062.531.531 0 010-1.062z" fill="#3FC1C9"/><path d="M35.436 57.122a.686.686 0 110 1.371.686.686 0 010-1.371zM20.8 20.277a.932.932 0 110 1.864.932.932 0 010-1.864z" fill="#fff"/></g><defs><clipPath id="clip0"><path fill="#fff" d="M0 0h85v85H0z"/></clipPath></defs></svg>