<svg width="85" height="85" fill="none" xmlns="http://www.w3.org/2000/svg"><g clip-path="url(#clip0)"><path d="M42.5 85C65.909 85 85 65.908 85 42.5S65.909 0 42.5 0 0 19.092 0 42.5C0 65.909 19.092 85 42.5 85z" fill="#FC5185"/><path d="M14.11 20.295L38.239 31.25l22.713-10.31-24.13-10.954-22.712 10.31z" fill="#666"/><path d="M20.837 58.392c2.371-3.988 6.11-8.615 2.314-15.651-5.588-24.433 20.164-29.387 24.059-19.303 6.336 2.389 6.167 15.54 2.908 22.424-.145 2.831-3.09 5.301 2.231 12.609l.384-.084h-.001c-6.903 2-24.598 1.08-31.895.005z" fill="#666"/><path d="M32.675 53.242c-.237 4.375-1.79 6.028-3.943 7.178-1.096.967-9.34 1.227-11.751 5.12-.322.519-.543 5.553-1.024 10.15A42.314 42.314 0 0042.5 85c6.65 0 12.944-1.529 18.549-4.252-1.267-4.81-2.557-14.478-3.01-15.208-2.543-4.11-11.209-4.157-12.216-4.997-2.107-1.179-3.62-2.913-3.854-7.3 0 0-3.148 2.441-5.105 2.066-1.957-.376-4.189-2.066-4.189-2.066v-.001z" fill="#F0B97D"/><path d="M27.603 46.066c1.942 4.158 2.66 5.782 5.072 7.65 0 0 2.232 1.723 4.189 2.106 1.957.383 5.105-2.105 5.105-2.105 2.411-1.87 3.13-3.493 5.071-7.651.476.252.973.597 1.36.154.387-.444 2.226-6.196 1.895-6.973-.331-.776-.654-.281-1.147.07.025-.166-.39 2.08-.384 1.738.047-2.716-1.862-3.147-2.46-10.332-8.802 8.732-17.023 4.725-19.887 5.31-.83.17-1.074 2.295-.921 3.285-3.106-2.217.669 6.811.747 6.902.388.443.884.099 1.36-.154z" fill="#FED198"/><path d="M28.73 60.418c-2.958 1.58-8.374-.329-11.75 5.122-.28.452-1.673 4.347-3.091 8.387C21.44 80.806 31.48 85 42.5 85a42.31 42.31 0 0020.34-5.174c-1.669-5.025-4.375-13.6-4.8-14.285-3.383-5.465-9.19-3.543-12.15-5.133l-8.26 16.879-8.9-16.868z" fill="#364F6B"/><path d="M24.154 21.414c6.218-4.168 21.356-3.989 26.903.223l.573 6.973c-9.68-2.529-18.219-2.4-28.115.157l.639-7.354v.001z" fill="#807D7D"/><path d="M32.627 67.791c2.569.916 6.94.922 9.65-.003l-4.647 9.499-5.003-9.496z" fill="#3FC1C9"/><path d="M19.527 17.93l.04 11.88v.368h-.707V18.155c.024-.681.62-.775.668-.226z" fill="#fff"/><path d="M17.913 31.978c0 3.21-.673 5.973-.711 6.158-.037.184.611.79.736.184.125-.605-.012.013.562.052.565.04.683-.24.686-.25.004.01.122.29.687.25.573-.039.436-.658.561-.052.125.605.774 0 .736-.184-.037-.184-.71-2.948-.71-6.158-.03-1.23-.512-1.809-1.274-1.986-.76.177-1.242.757-1.272 1.986h-.001z" fill="#FFBA1B"/><path d="M19.186 29.992c1.262 0 1.299.802 1.234 1.544-.277-.242-.727-.398-1.234-.398-.508 0-.957.156-1.235.398-.044-.862-.027-1.544 1.235-1.544z" fill="#807D7D"/><path d="M63.336 41.867h17.65l4.004 17.68-1.467.007-.035 6.242 1.512.007-.01 1.044H61.132c-2.258-.176-2.056-4.189-2.177-5.263l2.01-17.971c.008-.8.839-1.745 2.371-1.745z" fill="#FFCA4F"/><path d="M63.336 41.867h1.69l-1.538 24.98h-2.356c-2.767-.314-2.872-4.716-1.974-7.08l1.807-16.156c.008-.799.839-1.744 2.372-1.744h-.001z" fill="#364F6B"/><path d="M61.439 59.544h23.094c-1.048 2.141-1.02 4.253 0 6.336H61.439c-2.478 0-2.477-6.336 0-6.336z" fill="#fff"/><path d="M59.76 61.286h24.155l-.04.19H59.714a6.38 6.38 0 01.046-.19zm24.041.667l-.02.19H59.608a3.8 3.8 0 01.022-.19H83.8zm-.043.666a4.016 4.016 0 000 .19H59.582v-.19h24.176zm.024.666c.005.064.013.127.02.19H59.63a5.115 5.115 0 01-.022-.19h24.174zm.094.667l.039.19H59.76a3.683 3.683 0 01-.046-.19h24.162zm.161.666c.019.064.039.126.06.19H60.005a2.847 2.847 0 01-.084-.19h24.116zm.231.666c.026.064.052.128.08.19H60.47a1.95 1.95 0 01-.172-.19h23.97z" fill="#ECF0F1"/><path d="M68.464 62.79h3.608v8.007l-1.82-2.612-1.79 2.612V62.79h.002z" fill="#3FC1C9"/><path d="M57.311 53.07l24.465-8.752c2.74-.228 3.561 5.348 1.765 5.874l-23.903 8.97c-1.357.512-2.685-1.671-2.804-3.81-.062-1.138.247-1.103 1.542-1.61l-1.065-.672z" fill="#fff"/><path d="M84.31 49.357c-.156.422-.41.729-.77.834l-23.902 8.97c-.416.158-.83.061-1.205-.209.679.068 1.049-.022 1.695-.63l24.183-8.965h-.001z" fill="#ECF0F1"/><path d="M73.368 47.328c1.817.262 3.114 4.577 2.207 5.853l-3.304 1.24c.6-2.023-.706-5.395-2.521-5.797l3.618-1.296z" fill="#FF757C"/><path d="M79.22 56.058l-3.645-2.877-3.305 1.24 2.76 3.206 1.274-1.905 2.916.336z" fill="#FF757C"/><path d="M58.216 53.808l.16-.067c.999.202 2.75 3.783.83 4.577-1.365.565-2-2.397-1.95-3.38.584-.419 1.216 1.351 1.014 1.39l-.406.08s.013.775.406.829l1.568-.508s-.127-2.283-1.622-2.922zm5.639 7.064H84.02a7.97 7.97 0 01.511-1.323l.002-.005H61.438c-2.292 0-2.464 5.426-.513 6.235-.66-1.868-.133-4.907 1.583-4.907h1.347z" fill="#ECF0F1"/></g><defs><clipPath id="clip0"><path fill="#fff" d="M0 0h85v85H0z"/></clipPath></defs></svg>