<svg width="15" height="16" fill="none" xmlns="http://www.w3.org/2000/svg"><path d="M13.565 7.22l-6.1 6.866c-.746.841-1.76 1.314-2.816 1.314-1.057 0-2.07-.473-2.818-1.314-.747-.841-1.166-1.982-1.166-3.172 0-1.19.42-2.33 1.166-3.171l6.1-6.867C8.427.316 9.103 0 9.807 0c.705 0 1.38.315 1.879.876.498.56.777 1.321.777 2.114 0 .794-.28 1.554-.777 2.115L5.58 11.972c-.249.28-.587.438-.939.438s-.69-.158-.94-.438a1.596 1.596 0 01-.388-1.058c0-.396.14-.777.389-1.057l5.634-6.336" stroke="gray" stroke-linecap="round" stroke-linejoin="round"/></svg>