<svg width="85" height="85" fill="none" xmlns="http://www.w3.org/2000/svg"><g clip-path="url(#clip0)"><path d="M42.5 0C65.974 0 85 19.028 85 42.5S65.974 85 42.5 85C19.03 85 .002 65.972.002 42.5S19.029 0 42.501 0z" fill="#FC5185"/><path d="M27.293 39.45c2.188-3.678 5.636-7.947 2.134-14.437C24.272 2.473 48.03-2.097 51.621 7.205c5.845 2.204 5.69 14.337 2.683 20.686-.134 2.613-2.85 4.891 2.059 11.632l.353-.077c-6.368 1.846-22.691.996-29.424.004z" fill="#666"/><path d="M38.213 34.7c-.219 4.037-1.651 5.56-3.638 6.622-1.01.893-8.616 1.132-10.84 4.722-.464.749-.701 8.63-1.983 12.275 9.296 6.088 32.2 6.088 41.497 0-1.283-3.646-1.173-11.525-1.637-12.274-2.348-3.792-10.34-3.836-11.27-4.61-1.943-1.088-3.339-2.688-3.555-6.735 0 0-2.904 2.253-4.71 1.906-1.805-.346-3.864-1.906-3.864-1.906z" fill="#FED198"/><path d="M38.116 35.802c1.058.63 2.823 2.6 4.475 2.622 1.645.023 3.963-2.41 4.294-2.59-.029-.23-.052-.469-.071-.717l-.028.021v.001h-.002c-.089.07-2.93 2.29-4.707 1.942-1.751-.343-3.74-1.848-3.858-1.939l-.034-.026c-.018.237-.042.466-.069.686z" fill="#F0B97D"/><path d="M33.535 28.08c1.79 3.836 2.453 5.334 4.678 7.058 0 0 2.059 1.59 3.864 1.943 1.806.353 4.71-1.943 4.71-1.943 2.225-1.724 2.887-3.222 4.678-7.058.44.234.898.551 1.254.142.357-.409 2.053-5.715 1.748-6.431-.305-.717-.603-.26-1.058.064.024-.154-.36 1.918-.354 1.603.043-2.505-1.718-2.903-2.27-9.531-8.119 8.055-15.703 4.358-18.346 4.898-.765.156-.99 2.117-.849 3.03-2.866-2.045.617 6.284.69 6.367.357.41.815.092 1.254-.142z" fill="#FED198"/><path d="M34.574 41.32c-2.729 1.458-7.726-.303-10.84 4.724-.462.748-2.237 8.63-3.52 12.275 9.296 7.167 35.275 7.21 44.572 0-1.283-3.646-2.711-11.527-3.174-12.275-3.121-5.041-8.477-3.268-11.21-4.735L42.785 56.88l-8.211-15.56z" fill="#364F6B"/><path d="M38.169 48.122c2.37.845 6.402.85 8.903-.003l-4.287 8.762-4.616-8.759z" fill="#fff"/><path d="M18.648 46.813C33.357 44.89 39.21 48.58 42.5 51.487c-4.888-2.815-14.271-2.629-23.439-.99l-.413-3.684zm47.704 0C51.643 44.89 45.79 48.58 42.5 51.486c5.833-3.358 16.794-2.153 23.43-.938l.422-3.735z" fill="#fff"/><path d="M15.021 51.075c10.372-2.363 21.996-3.11 27.637.138 5.64-3.247 16.948-2.501 27.321-.138l-.89 30.611c-.607-.114-17-2.553-24.925-.175h-2.95c-8.7-2.53-24.733.068-25.304.175l-.889-30.61z" fill="#3FC1C9"/><path d="M16.33 49.25l.158 1.622c10.02-2.127 20.905-2.679 26.306.43-.02-.014-8.02-6.03-26.463-2.051z" fill="#DFE1E3"/><path d="M68.67 49.34l-.158 1.622c-10.02-2.127-20.906-2.679-26.306.43.02-.014 8.02-6.03 26.464-2.051z" fill="#DFE1E3"/><path d="M20.661 59.394l-2.889.154-2.875.204c-1.19.085-.992 2.216.194 2.076l3.135-.371 2.38-.2c1.19-.101.855-1.906.055-1.863zm-.397 6.632l-4.481.524c-.961.111-.73 2.253.194 2.075l4.495-.864c.94-.181.74-1.846-.208-1.735zm.57-2.325c1.188-.111 1.431 1.726.246 1.877l-5.673.725c-1.184.151-1.383-1.965-.194-2.076l5.62-.526zm.792-2.32c1.392-.13 1.586 1.945.194 2.075l-6.593.618c-1.392.13-1.586-1.945-.194-2.076l6.593-.617z" fill="#FED198"/><path d="M20.287 59.865l.101 1.085.724-.068c.122-.406.07-.79-.109-1.16l-.716.143zm1.243 2.018l.115 1.232.675-.064c.24-.465.229-.907-.123-1.317l-.668.148zm-.902 2.303l.101 1.084.829-.077a1.864 1.864 0 00-.109-1.16l-.821.153zm-.679 2.397l.131.858.831-.142a1.19 1.19 0 00-.14-.919l-.822.202z" fill="#fff"/><path d="M64.339 59.394l2.89.154 2.875.204c1.19.085.991 2.216-.195 2.076l-3.135-.371-2.38-.2c-1.19-.101-.855-1.906-.055-1.863zm.397 6.632l4.481.524c.961.111.73 2.253-.194 2.075l-4.495-.864c-.939-.181-.74-1.846.208-1.735zm-.57-2.325c-1.188-.111-1.431 1.726-.246 1.877l5.673.725c1.184.151 1.383-1.965.194-2.076l-5.62-.526zm-.792-2.32c-1.392-.13-1.586 1.945-.194 2.075l6.593.618c1.392.13 1.586-1.945.195-2.076l-6.594-.617z" fill="#FED198"/><path d="M64.713 59.865l-.101 1.085-.724-.068c-.122-.406-.07-.79.109-1.16l.716.143zm-1.243 2.018l-.115 1.232-.676-.064c-.239-.465-.228-.907.124-1.317l.667.148zm.902 2.303l-.101 1.084-.829-.077a1.865 1.865 0 01.109-1.16l.821.153zm.679 2.397l-.132.858-.83-.142a1.19 1.19 0 01.14-.919l.822.202z" fill="#fff"/><path d="M41.247 50.534h2.917V81.51h-2.917V50.534z" fill="#FFBA1B"/></g><defs><clipPath id="clip0"><path fill="#fff" d="M0 0h85v85H0z"/></clipPath></defs></svg>