<svg width="92" height="92" fill="none" xmlns="http://www.w3.org/2000/svg"><g clip-path="url(#clip0)" fill="#364F6B"><path d="M46.034 0A45.967 45.967 0 0013.53 78.47a45.966 45.966 0 1065.007-65.007A45.666 45.666 0 0046.034 0zM21.186 79.724v-3.978c0-13.723 11.124-24.848 24.848-24.848 13.723 0 24.848 11.125 24.848 24.848v3.978c-14.772 10.902-34.925 10.902-49.696 0zm53.728-3.38v-.598c0-15.924-12.956-28.88-28.88-28.88-15.925 0-28.88 12.956-28.88 28.88v.598A41.82 41.82 0 014.1 45.966c0-23.122 18.81-41.934 41.934-41.934 23.122 0 41.934 18.812 41.934 41.934a41.82 41.82 0 01-13.055 30.378h.001z"/><path d="M46.125 13.537c-8.607 0-15.586 6.979-15.586 15.586 0 8.608 6.979 15.586 15.586 15.586 8.608 0 15.586-6.978 15.586-15.586-.01-8.603-6.982-15.575-15.586-15.586zm0 27.14c-6.38 0-11.553-5.173-11.553-11.554 0-6.38 5.173-11.553 11.553-11.553 6.382 0 11.554 5.172 11.554 11.553-.007 6.378-5.176 11.547-11.554 11.554z"/></g><defs><clipPath id="clip0"><path fill="#fff" d="M0 0h92v92H0z"/></clipPath></defs></svg>