<svg width="85" height="85" fill="none" xmlns="http://www.w3.org/2000/svg"><g clip-path="url(#clip0)"><path d="M42.501 85c23.408 0 42.5-19.092 42.5-42.5S65.909 0 42.5 0 .001 19.092.001 42.5 19.093 85 42.501 85z" fill="#364F6B"/><path d="M5.427 4.87h27.636v38.2H5.427c-2.273 0-4.133-1.797-4.133-3.994V8.864c0-2.197 1.86-3.994 4.133-3.994z" fill="#24A0A8"/><path d="M6.579 3.558h26.485V41.76H6.579c-2.178 0-3.96-1.722-3.96-3.828V7.387c0-2.106 1.782-3.829 3.96-3.829z" fill="#fff"/><path d="M5.427 0h27.636v38.202H1.294V3.995c0-2.197 1.86-3.994 4.133-3.994z" fill="#3FC1C9"/><path d="M4.8 38.202H1.295V3.995C1.295 2.005 2.822.341 4.8.047v38.155z" fill="#24A0A8"/><path d="M4.218 41h28.845v.302H4.707a4.157 4.157 0 01-.49-.302zm28.845-2.294v.302H2.78c-.03-.1-.056-.2-.078-.302h30.362zm0 .764v.303H3.11a3.745 3.745 0 01-.155-.303h30.108zm0 .765v.302H3.684a4.025 4.025 0 01-.263-.302h29.642z" fill="#DFE1E3"/><path d="M12.09 32.069h10.363v.594H12.089v-.594zm1.969 1.029h6.424v.593H14.06v-.593z" fill="#fff"/><path d="M8.706 40.235v6.33c.012.297.018.627.025.966.06 3.185.139 7.331 7.296 7.291l.002-.002h14.134v.002c1.58-.01 3.23-.366 4.376-1.315.895-.74 1.49-1.858 1.505-3.481h-.002v-22.67c0-2.74 1.895-4.52 4.306-5.296a9.525 9.525 0 012.871-.444c.98-.003 1.959.14 2.859.432 2.348.76 4.173 2.515 4.173 5.307v14.549l-.002.004c-.012.939.069 1.847.256 2.68.173.77.436 1.473.802 2.075l.003.005 3.082 5.268-.672.394-3.082-5.267c-.41-.677-.704-1.458-.895-2.303-.2-.892-.285-1.859-.274-2.856h-.001V27.356c0-2.393-1.587-3.903-3.628-4.565a8.491 8.491 0 00-2.62-.395c-.9.003-1.8.14-2.633.407-2.106.679-3.761 2.21-3.761 4.553v22.67l-.002.003c-.017 1.89-.723 3.202-1.786 4.082-1.302 1.077-3.133 1.48-4.872 1.491l-.002.002H16.029v-.002c-7.925.045-8.011-4.538-8.078-8.058-.007-.326-.013-.644-.026-.962l-.002-.017v-6.329h.783zm8.473-32.651a8.49 8.49 0 016.022 2.494 8.49 8.49 0 012.494 6.022 8.492 8.492 0 01-2.494 6.022 8.49 8.49 0 01-6.022 2.494 8.49 8.49 0 01-6.022-2.494A8.49 8.49 0 018.663 16.1a8.49 8.49 0 012.494-6.022 8.49 8.49 0 016.022-2.494zm6.1 13.222c-.537-.254-1.226-.458-2.008-.612a9.004 9.004 0 01-2.924 3.522 7.685 7.685 0 004.933-2.91zm-7.268 2.91a9.01 9.01 0 01-2.922-3.519c-.782.154-1.471.357-2.01.61a7.683 7.683 0 004.933 2.91zm-5.398-3.583c.58-.288 1.32-.519 2.159-.694a9.738 9.738 0 01-.582-2.93H9.486a7.668 7.668 0 001.127 3.624zm-1.128-4.436h2.703a9.668 9.668 0 01.67-3.185c-.812-.165-1.535-.382-2.114-.65a7.654 7.654 0 00-1.258 3.835h-.001zm1.752-4.5c.54.23 1.21.417 1.96.559.044-.085.088-.17.134-.254a8.925 8.925 0 012.668-3.016 7.685 7.685 0 00-4.763 2.71zm7.122-2.712a8.923 8.923 0 012.803 3.273c.753-.142 1.423-.329 1.96-.561a7.709 7.709 0 00-4.763-2.712zm5.257 3.379c-.577.268-1.3.486-2.114.65a9.678 9.678 0 01.668 3.183h2.704a7.668 7.668 0 00-1.258-3.833zm1.257 4.645H22.17a9.722 9.722 0 01-.581 2.926c.84.176 1.582.408 2.158.697a7.664 7.664 0 001.127-3.623zm-7.288-7.57v3.153c.944-.015 1.876-.08 2.736-.197l-.004-.007a8.13 8.13 0 00-2.732-2.95zm0 3.965v2.793h3.776a8.841 8.841 0 00-.674-3.038 23.35 23.35 0 01-3.102.245zm0 3.605v2.52a23.14 23.14 0 013.193.259c.342-.89.536-1.831.581-2.779h-3.774zm0 3.331v3.418a8.221 8.221 0 002.854-3.204 22.907 22.907 0 00-2.854-.214zm-.812 3.418v-3.417c-.986.016-1.96.088-2.852.216.035.068.07.137.107.205a8.218 8.218 0 002.746 2.996zm0-4.23V16.51H13a8.9 8.9 0 00.583 2.782 23.24 23.24 0 013.19-.262zm0-3.331v-2.794a23.375 23.375 0 01-3.1-.248c-.406.966-.63 2-.675 3.042h3.775zm0-3.606V8.94a8.13 8.13 0 00-2.731 2.95l-.002.003c.86.118 1.791.184 2.734.2z" fill="#fff"/><path d="M62.31 81.225c-5.92-3.158-14.576-13.996-14.981-21.113-.406-7.117-1.74-6.995 4.846-11.233 6.48-4.232 5.88-3.152 12.233.081 6.353 3.234 12.829 15.986 13.305 22.21.546 7.157-9.482 13.214-15.403 10.055z" fill="#DFE1E3"/><path d="M47.913 52.08c.766-.87 2.078-1.796 4.261-3.202 6.481-4.231 5.88-3.152 12.234.081 6.353 3.235 12.83 15.986 13.304 22.21.126 1.645-.308 3.232-1.122 4.663-3.113 4.104-9.344 6.468-13.527 4.236-5.928-3.163-14.595-14.014-15-21.14-.21-3.688-.669-5.434-.15-6.849z" fill="#fff"/><path d="M50.116 68.115c-1.583-2.8-2.651-5.612-2.787-8.004-.406-7.117-1.74-6.994 4.846-11.233 6.48-4.231 5.88-3.152 12.233.081 2.115 1.077 4.243 3.209 6.16 5.803L50.116 68.115z" fill="#FBB429"/><path d="M52.571 48.62l8.19 12.544-.839.548-8.191-12.546.443-.288.397-.258z" fill="#FBAB08"/><path d="M53.743 51.331a1.439 1.439 0 011.985.418l4.035 6.18c.432.66.244 1.554-.416 1.985a1.438 1.438 0 01-1.985-.417l-4.035-6.18a1.44 1.44 0 01.416-1.986z" fill="#FBAB08"/><path d="M54.556 52.577a1.24 1.24 0 011.712.36l2.625 4.02c.372.57.21 1.34-.36 1.712a1.24 1.24 0 01-1.712-.36l-2.625-4.02a1.24 1.24 0 01.36-1.712zm-11.615.349l-1.368-.799.329-.564 1.368.8-.329.563zm1.602-1.59l-1.978-3.104.55-.35 1.977 3.103-.549.35zm2.252-.767l-.001-1.18h.65l.002 1.18h-.65zm-1.024 8.192l-2.095 2.707-.516-.398 2.095-2.707.516.398zm-2.15-1.539l-1.225.457-.227-.61 1.226-.456.226.61zm-1.029-2.147l-2.832-.306.069-.648 2.832.306-.069.648z" fill="#fff"/></g><defs><clipPath id="clip0"><path fill="#fff" d="M0 0h85v85H0z"/></clipPath></defs></svg>