<svg width="85" height="85" fill="none" xmlns="http://www.w3.org/2000/svg"><g clip-path="url(#clip0)"><path d="M42.5.001c23.472 0 42.5 19.028 42.5 42.5S65.972 85 42.5 85C19.027 85 0 65.972 0 42.5S19.028 0 42.5 0z" fill="#3FC1C9"/><path d="M81.046 75.576l-12.707-3.328v6.664l12.707-3.336z" fill="#FFBA1B"/><path d="M68.34 74.197c.864.908.942 1.829 0 2.766H8.687v-2.766H68.34z" fill="#FF5B61"/><path d="M68.34 74.197c.84-.596.926-1.24 0-1.95H8.687v1.95H68.34z" fill="#EC4B53"/><path d="M8.689 78.912v-6.664H6.805v6.664H8.69z" fill="#ECF0F1"/><path d="M3.037 77.03v-2.9a1.89 1.89 0 011.884-1.883h1.884v6.664H4.92a1.89 1.89 0 01-1.884-1.883z" fill="#3FC1C9"/><path d="M81.964 75.713v-.278l-5.682-1.108v2.486l5.682-1.1z" fill="#666"/><path d="M68.34 76.963c.84.596.926 1.24 0 1.95H8.687v-1.95H68.34z" fill="#EC4B53"/><path d="M42.489 74.37C31.607 70.15 25.85 57.126 26.606 46.2c.622-8.995 5.657-16.57 15.883-16.65 10.224.08 15.26 7.655 15.882 16.65.756 10.927-5.001 23.95-15.883 28.17z" fill="#FFBA1B"/><path d="M29.573 36.394c2.482-3.943 6.528-6.604 12.285-6.828-.837 4.229-4.565 7.417-9.039 7.417a9.196 9.196 0 01-3.246-.589zm13.547-6.828c5.756.224 9.802 2.885 12.284 6.828a9.193 9.193 0 01-3.247.589c-4.473 0-8.201-3.188-9.038-7.417z" fill="#F5A209"/><path d="M32.82 35.274c5.075 0 9.213-4.14 9.213-9.215s-4.139-9.213-9.214-9.213-9.214 4.139-9.214 9.213c0 5.076 4.14 9.215 9.214 9.215z" fill="#364F6B"/><path d="M32.82 33.733c4.226 0 7.673-3.447 7.673-7.674 0-4.226-3.447-7.673-7.674-7.673-4.226 0-7.674 3.447-7.674 7.673 0 4.227 3.447 7.674 7.674 7.674z" fill="#fff"/><path d="M25.181 25.322a7.674 7.674 0 1015.277 0 7.675 7.675 0 01-15.276 0z" fill="#ECF0F1"/><path d="M52.158 35.274c5.075 0 9.214-4.14 9.214-9.215s-4.14-9.213-9.214-9.213c-5.075 0-9.215 4.139-9.215 9.213 0 5.076 4.14 9.215 9.215 9.215z" fill="#364F6B"/><path d="M34.112 29.305A4.295 4.295 0 0038.4 25.02a4.294 4.294 0 00-4.287-4.286 4.294 4.294 0 00-4.285 4.286 4.294 4.294 0 004.285 4.287z" fill="#2AA7AE"/><path d="M52.158 33.733c4.227 0 7.674-3.447 7.674-7.674 0-4.226-3.447-7.673-7.674-7.673s-7.674 3.447-7.674 7.673c0 4.227 3.447 7.674 7.674 7.674z" fill="#fff"/><path d="M44.52 25.322a7.674 7.674 0 1015.277 0 7.675 7.675 0 01-15.277 0z" fill="#ECF0F1"/><path d="M34.113 28.656a3.643 3.643 0 003.636-3.637 3.643 3.643 0 00-3.636-3.636 3.643 3.643 0 00-3.636 3.636 3.643 3.643 0 003.636 3.637z" fill="#3FC1C9"/><path d="M34.113 26.812c.987 0 1.792-.805 1.792-1.793 0-.987-.805-1.792-1.792-1.792s-1.793.805-1.793 1.793c0 .987.806 1.792 1.793 1.792z" fill="#666"/><path d="M50.865 29.305a4.294 4.294 0 004.286-4.286 4.294 4.294 0 00-4.286-4.286 4.295 4.295 0 00-4.286 4.286 4.295 4.295 0 004.286 4.287z" fill="#2AA7AE"/><path d="M50.865 28.656a3.643 3.643 0 003.636-3.637 3.643 3.643 0 00-3.636-3.636 3.643 3.643 0 00-3.637 3.636 3.644 3.644 0 003.637 3.637z" fill="#3FC1C9"/><path d="M50.865 26.812c.987 0 1.792-.805 1.792-1.793 0-.987-.805-1.792-1.792-1.792-.988 0-1.793.805-1.793 1.793 0 .987.805 1.792 1.793 1.792z" fill="#666"/><path d="M42.489 13.222c0-3.005 9.937 2.78 16.321-3.753-.854 19.964-10.23-5.658-16.322 20.081-6.09-25.74-15.467-.117-16.32-20.08 6.383 6.531 16.32.747 16.32 3.752z" fill="#364F6B"/><path d="M57.998 15.386c-2.571 7.944-10.26-5.45-15.51 16.732C37.24 9.935 29.55 23.33 26.978 15.386c4.215 1.703 12.411-.977 15.51 10.673 3.17-11.832 11.295-8.97 15.51-10.673z" fill="#FFBA1B"/><path d="M55.678 36.805c.262.768.454 27.861-9.248 35.502 5.904-1.633 25.753-23.29 9.248-35.502z" fill="#364F6B"/><path d="M42.488 26.509l-2.704 2.757 2.704 5.502v-8.26z" fill="#FF5B61"/><path d="M42.488 26.509l2.705 2.757-2.705 5.502v-8.26z" fill="#EC4B53"/><path d="M29.322 36.805c-.262.768-.454 27.861 9.248 35.502-5.904-1.633-25.753-23.29-9.248-35.502z" fill="#364F6B"/><path d="M46.369 69.93c.588 0 1.102.359 1.379.892.276-.533.79-.891 1.378-.891.589 0 1.102.358 1.379.89.276-.532.79-.89 1.378-.89.881 0 1.595.803 1.595 1.793 0 .99-.714 1.793-1.595 1.793-.588 0-1.102-.358-1.378-.891-.277.532-.79.89-1.379.89-.588 0-1.102-.357-1.378-.89-.277.532-.791.89-1.379.89-.881 0-1.595-.802-1.595-1.792s.714-1.793 1.595-1.793z" fill="#fff"/><path d="M45.535 73.529c.362 1.201.882 2.312.882 2.312s.81-1.304.777-2.291c-.06-1.789-2.02-1.223-1.659-.022v.001zm5.565 0c.238 1.201.645 2.312.645 2.312s.943-1.304 1.012-2.291c.123-1.789-1.895-1.223-1.657-.022v.001zm-2.696 0a17.81 17.81 0 00.665 2.312s.932-1.304.991-2.291c.109-1.789-1.905-1.223-1.657-.022v.001z" fill="#666"/><path d="M38.516 69.93c-.588 0-1.102.359-1.378.892-.277-.533-.79-.891-1.379-.891-.588 0-1.102.358-1.379.89-.276-.532-.79-.89-1.378-.89-.881 0-1.595.803-1.595 1.793 0 .99.714 1.793 1.595 1.793.588 0 1.102-.358 1.378-.891.277.532.79.89 1.379.89.588 0 1.102-.357 1.379-.89.276.532.79.89 1.378.89.882 0 1.595-.802 1.595-1.792s-.713-1.793-1.595-1.793z" fill="#fff"/><path d="M39.35 73.529c-.362 1.201-.882 2.312-.882 2.312s-.81-1.304-.777-2.291c.06-1.789 2.02-1.223 1.659-.022v.001zm-5.565 0c-.238 1.201-.644 2.312-.644 2.312s-.944-1.304-1.012-2.291c-.124-1.789 1.894-1.223 1.657-.022v.001zm2.696 0c-.249 1.201-.665 2.312-.665 2.312s-.932-1.304-.991-2.291c-.109-1.789 1.905-1.223 1.657-.022v.001z" fill="#666"/><path d="M32.433 24.781a.898.898 0 00.896-.897.898.898 0 00-.896-.896.898.898 0 00-.896.896c0 .494.402.897.896.897zm17.17-.162a.898.898 0 00.896-.896.898.898 0 00-.896-.897.898.898 0 000 1.793z" fill="#fff"/></g><defs><clipPath id="clip0"><path fill="#fff" d="M0 0h85v85H0z"/></clipPath></defs></svg>