<svg width="456" height="456" fill="none" xmlns="http://www.w3.org/2000/svg"><g clip-path="url(#clip0)" fill="#6CCFD6"><path d="M228.168 0C136.017 0 52.941 55.51 17.678 140.647c-35.263 85.132-15.774 183.127 49.386 248.29 57.516 57.754 141.505 80.382 220.252 59.339 78.747-21.039 140.252-82.549 161.295-161.292 21.04-78.746-1.588-162.736-59.343-220.252A226.346 226.346 0 00228.168 0zm-123.16 395.15v-19.716c0-68.016 55.139-123.159 123.16-123.159 68.02 0 123.159 55.143 123.159 123.159v19.716c-73.215 54.038-173.103 54.038-246.319 0zm266.305-16.753v-2.963c0-78.926-64.215-143.141-143.145-143.141S85.023 296.509 85.023 375.435v2.963A207.281 207.281 0 0120.32 227.833c0-114.608 93.241-207.848 207.848-207.848 114.607 0 207.847 93.24 207.847 207.848a207.285 207.285 0 01-64.706 150.565h.004z"/><path d="M228.621 67.1c-42.664 0-77.252 34.587-77.252 77.251s34.588 77.252 77.252 77.252c42.664 0 77.251-34.588 77.251-77.252-.05-42.644-34.607-77.201-77.251-77.252zm0 134.518c-31.626 0-57.267-25.642-57.267-57.267 0-31.629 25.641-57.267 57.267-57.267 31.629 0 57.266 25.638 57.266 57.267-.035 31.613-25.653 57.231-57.266 57.267z"/></g><defs><clipPath id="clip0"><path fill="#fff" d="M0 0h456v456H0z"/></clipPath></defs></svg>