<svg width="85" height="85" fill="none" xmlns="http://www.w3.org/2000/svg"><g clip-path="url(#clip0)"><path d="M42.502 85c23.408 0 42.5-19.093 42.5-42.5 0-23.408-19.092-42.5-42.5-42.5C19.093 0 .002 19.092.002 42.5S19.094 85 42.502 85z" fill="#61E4EC"/><path d="M36.046 17.095c.383 0 .754.058 1.103.164a6.188 6.188 0 0112.24 1.273 3.084 3.084 0 013.473 3.06 3.084 3.084 0 01-5.675 1.678 6.16 6.16 0 01-3.985 1.456 6.16 6.16 0 01-4.141-1.592 3.772 3.772 0 11-3.015-6.04zm8.898 42.709c.295 0 .578.045.847.126a4.747 4.747 0 019.389.976 2.37 2.37 0 012.664 2.348 2.366 2.366 0 01-4.353 1.287 4.722 4.722 0 01-3.057 1.117 4.723 4.723 0 01-3.176-1.221 2.893 2.893 0 11-2.313-4.633zM14.608 25.636c.143 0 .28.021.412.06a2.308 2.308 0 014.566.476 1.15 1.15 0 11-.821 1.768c-.402.34-.921.543-1.487.543a2.298 2.298 0 01-1.545-.593 1.407 1.407 0 11-1.125-2.253v-.001z" fill="#fff"/><path d="M77 16.894l-7.546-7.547-21.587 21.586 7.547 7.547L77 16.894z" fill="#DE386B"/><path d="M53.563 40.33l-7.546-7.546 1.85-1.851 7.547 7.546-1.852 1.851h.001z" fill="#fff"/><path d="M53.563 40.33l-7.546-7.546-2.708 2.707a1.274 1.274 0 000 1.797l5.751 5.75a1.274 1.274 0 001.796 0l2.707-2.707z" fill="#2AB5BD"/><path d="M74.93 14.823l-3.406-3.406-21.587 21.587 3.407 3.406 21.587-21.587z" fill="#FC5185"/><path d="M77 16.894l-7.546-7.547 7.888-3.03 2.69 2.688-3.03 7.889H77z" fill="#F0B97D"/><path d="M81.376 5.23l-.259-.259-3.775 1.346 2.69 2.688 1.345-3.774z" fill="#807D7D"/><path d="M74.93 14.823l-3.406-3.406 6.557-4.363 1.213 1.213-4.363 6.556z" fill="#FED198"/><path d="M60.65 46.004s.29 1.208-1.973 3.047c-2.262 1.839-4.274 2.288-4.274 2.288s.45-2.011 2.288-4.274c1.84-2.263 3.047-1.972 3.047-1.972l.527.385.384.526z" fill="#FFBA1B"/><path d="M64.154 41.518l-.173-11.604-7.194 7.193 3.455 8.688 3.913-4.277z" fill="#FFBA1B"/><path d="M65.963 42.732l-.083.07-.084.071-.086.072-.088.074-.09.074-.09.076-.091.077-.094.077-.094.078-.096.08-.097.078-.097.08-.098.081-.098.082-.1.081-.099.08-.1.082-.1.082-.1.081-.1.082-.1.08-.1.081-.001.001-.1.08-.099.081-.098.08-.099.08-.098.079-.097.079-.096.077-.095.077-.094.076-.093.074h-.001l-.091.074-.09.072-.089.071-.087.07-.086.068-.083.067-.082.066-.08.064-.079.062-.075.06-.073.06-.071.056-.069.054-.065.053-.063.05-.06.05-.058.045-.054.043-.05.042H61.5l-.048.038-.045.035-.041.033-.039.03-.035.028-.03.024-.027.022-.024.017-.019.016-.015.011-.011.008-.007.006-.002.001v.001l-1.02-1.02-1.022-1.021s2.426-3.064 3.9-4.806c.77-.908 3.227-2.262 4.165-1.217a1.27 1.27 0 01.092.092l.04.049a.817.817 0 01.07.104.85.85 0 01.06.112v.001l.024.058.021.061.02.061.015.064.013.064v.001l.01.065.008.068.005.068.002.07v.07l-.003.072-.005.072-.007.073-.01.074-.011.075-.014.075-.015.076-.018.077-.02.077-.02.077-.023.077-.026.078-.026.077-.027.078-.03.078-.031.077v.001l-.032.077-.034.078-.034.077-.036.075-.037.076-.038.075-.039.075-.04.073-.04.073-.043.072v.001l-.042.072-.043.07-.044.07-.044.067-.044.068-.045.065-.045.065-.046.062-.046.062-.045.06-.046.057-.046.057-.045.054-.046.052-.045.051-.046.048-.045.046-.044.045-.045.042-.043.04-.043.037zm1.265-4.12l.044.047-.044-.047z" fill="#3FC1C9"/><path d="M61.453 46.692l-2.399-2.398a.14.14 0 00-.198 0l-.768.767a.141.141 0 000 .199l2.399 2.398a.141.141 0 00.198 0l.768-.767a.141.141 0 000-.199z" fill="#fff"/><path d="M64.51 39.465c-.427.273-.794.576-1.017.84-1.178 1.383-2.969 3.605-3.636 4.437l-.157.197-.48-.48c.082-.101.208-.26.366-.459.78-.976 2.358-2.946 3.43-4.214.306-.361.877-.791 1.514-1.114.968-.492 2.086-.734 2.652-.104l.048.046.043.047.078.1.033.053.031.056.01.028c-.685-.496-1.955-.042-2.914.568z" fill="#2AB5BD"/><path d="M40.343 25.698s-1.209-.29-3.047 1.972c-1.838 2.263-2.288 4.274-2.288 4.274s2.012-.449 4.275-2.287c2.262-1.84 1.972-3.049 1.972-3.049l-.385-.525-.526-.385z" fill="#FFBA1B"/><path d="M44.83 22.193l11.604.174-7.194 7.193-8.688-3.454 4.277-3.912v-.001z" fill="#FFBA1B"/><path d="M43.615 20.384l-.07.083-.07.084-.073.087-.073.087-.075.09-.075.09-.077.092-.077.094-.078.094-.078.095-.08.097-.08.097-.081.099-.08.098-.082.1-.081.099-.082.1-.08.1-.082.1-.082.1-.081.101-.08.1-.081.1-.08.098-.08.1-.08.097-.078.099-.078.096-.078.096-.077.095-.075.094v.001l-.075.093-.073.091-.072.09h-.001l-.072.089-.07.087-.068.086-.066.084-.066.081-.063.08-.062.077-.06.076-.059.073-.057.07-.054.069-.053.065-.05.063-.049.06-.045.057-.043.055h-.001l-.04.052-.04.048-.035.044-.033.042-.03.037-.028.035-.024.03-.022.027-.018.023-.015.02-.013.015-.008.01-.005.007h-.001l-.002.002 1.02 1.02 1.022 1.022s3.064-2.427 4.806-3.9c.908-.77 2.262-3.227 1.217-4.166l-.045-.047-.047-.044a.816.816 0 00-.1-.078l-.054-.034c-.018-.01-.036-.021-.055-.03a.926.926 0 00-.057-.028l-.058-.024a.559.559 0 00-.06-.021l-.063-.019-.063-.015-.064-.013a2.015 2.015 0 00-.066-.01l-.068-.008-.068-.005-.07-.002h-.07l-.072.003v-.001l-.073.005-.074.008-.074.009-.075.011-.075.014-.076.015-.077.018-.077.02-.077.02-.077.023-.079.025-.077.027-.078.028-.078.029-.077.03-.077.033-.078.033-.076.035-.077.036-.076.037-.075.039-.074.039-.075.04-.073.04-.072.042-.071.042-.07.043-.07.044-.068.043-.067.045-.066.045-.063.046-.063.045-.062.046-.06.046-.058.046-.056.045-.054.046-.053.046-.05.045-.049.046-.047.044-.043.045-.042.043-.04.043-.037.044-.002.005zm4.12-1.265l-.047-.044.047.044z" fill="#3FC1C9"/><path d="M39.655 24.893l2.399 2.399a.141.141 0 010 .199l-.768.767a.141.141 0 01-.199 0l-2.399-2.398a.14.14 0 010-.198l.768-.768a.14.14 0 01.198 0h.001z" fill="#fff"/><path d="M46.882 21.836c-.272.428-.576.795-.84 1.02-1.383 1.177-3.605 2.967-4.436 3.634l-.197.158.479.478.459-.366a217.55 217.55 0 004.214-3.43c.36-.305.792-.876 1.114-1.513.492-.968.734-2.086.105-2.652l-.046-.048-.047-.043-.1-.078-.053-.033-.056-.031-.028-.011c.496.686.041 1.955-.568 2.914v.001z" fill="#2AB5BD"/><path d="M51.338 38.105l-3.096-3.097-2.834 2.834a1.093 1.093 0 000 1.543l1.554 1.554a1.095 1.095 0 001.543 0l2.834-2.834z" fill="#3FC1C9"/><path d="M39.057 57.3a1.051 1.051 0 110 2.103 1.051 1.051 0 010-2.103zm-8.608-9.902a.21.21 0 110 .42.21.21 0 010-.42zM26.663 48.4a.6.6 0 110 1.2.6.6 0 010-1.2zm-10.047 4.499a1.067 1.067 0 110 2.134 1.067 1.067 0 010-2.134zm15.37-7.379a.582.582 0 110 1.165.582.582 0 010-1.165zm2.719 18.575a.777.777 0 110 1.554.777.777 0 010-1.554zm4.675-9.449a.405.405 0 110 .81.405.405 0 010-.81z" fill="#fff"/><path d="M36.527 80.712a4.213 4.213 0 00-1.537-.702 3.76 3.76 0 00-4.74-4.898 3.424 3.424 0 00-1.564-4.66 3.188 3.188 0 00.466-3.843 3.117 3.117 0 002.159-3.763 2.646 2.646 0 001.695-.771c.402-.403.648-.902.739-1.424a2.122 2.122 0 001.475-2.562c.42-.029.733-.105 1.154-.525.42-.42.948-1.474.28-2.282l10.748-13.9-1.218-1.219-1.219-1.218L30.71 49.564a1.81 1.81 0 00-2.452 1.562 2.118 2.118 0 00-2.562 1.476c-.521.09-1.02.336-1.423.739a2.648 2.648 0 00-.772 1.695 3.118 3.118 0 00-3.776 2.208 3.19 3.19 0 00-3.705.543 3.425 3.425 0 00-4.661-1.565 3.758 3.758 0 00-4.897-4.739 4.23 4.23 0 00-.702-1.537 5.41 5.41 0 10-5.73-8.952A43.288 43.288 0 000 42.5C0 65.972 19.028 85 42.5 85c1.363 0 2.712-.066 4.042-.192 2.253-5.405-4.636-10.091-8.818-5.909a5.381 5.381 0 00-1.198 1.814l.001-.002z" fill="#fff"/><path d="M36.527 80.712a4.213 4.213 0 00-1.537-.702 3.76 3.76 0 00-4.739-4.898 3.424 3.424 0 00-1.565-4.66 3.189 3.189 0 00.466-3.843 3.117 3.117 0 002.159-3.763 2.646 2.646 0 001.695-.772c.403-.402.649-.901.74-1.423a2.122 2.122 0 001.475-2.562c1.39-.095 2.263-1.76 1.433-2.807l10.748-13.9-11.32 13.806c.624 1.198-.106 2.402-1.48 2.524.67 1.136-.355 2.564-1.513 2.419.423 1.44-.95 2.241-2.152 2.135.173 1.869-.497 3.598-2.41 4.07 1.145 1.487.465 3.24-.583 4.028 2.462 1.387 2.492 3.548 1.359 5.307 2.838-.707 5.847.64 5.113 4.499 0 0 1.552.198 2.33 1.391 0 0 2.828-5.17 6.905-3.066 3.041 1.569 2.547 4.826 2.1 6.38.264-.02.527-.042.79-.068 2.253-5.405-4.636-10.091-8.818-5.908a5.382 5.382 0 00-1.198 1.813h.002z" fill="#DFE1E3"/><path d="M11.322 59.572a4.887 4.887 0 014.768 3.817 3.457 3.457 0 014.024 1.777 3.14 3.14 0 014.47 4.233 4.42 4.42 0 01.848 2.608c0 .798-.211 1.547-.58 2.194a3.14 3.14 0 012.508 4.838 1.894 1.894 0 012.084 1.386 1.894 1.894 0 011.095 2.865c-10.08-2.952-18.607-9.537-24.067-18.241l-.015-.134-.06.014a42.283 42.283 0 01-4.675-10.425 2.948 2.948 0 013.318 3.65 3.456 3.456 0 013.843 2.07 4.864 4.864 0 012.438-.651l.001-.001z" fill="#ECF0F1"/><path d="M25.077 81.272A42.674 42.674 0 016.472 65.049l-.014-.133-.061.013a42.554 42.554 0 01-1.166-1.99c.374.339.672.76.87 1.233a4.887 4.887 0 017.206 3.165 3.453 3.453 0 014.024 1.777 3.14 3.14 0 014.47 4.233c.532.732.847 1.634.847 2.608 0 .798-.211 1.547-.58 2.195a3.14 3.14 0 013.008 3.122zM40.292 41.04l3.074-2.816.647.713-3.721 2.103zm4.847 5.035l2.475-3.463.699.649-3.175 2.814zm1.773-.218l1.722-2.306.513.44-2.234 1.866h-.001zm-6.526-6.244l2.329-2.14.287.396-2.615 1.744z" fill="#fff"/></g><defs><clipPath id="clip0"><path fill="#fff" d="M0 0h85v85H0z"/></clipPath></defs></svg>